M48
; DRILL file {KiCad (5.1.10)-1} date 07/22/23 22:57:45
; FORMAT={-:-/ absolute / inch / decimal}
; #@! TF.CreationDate,2023-07-22T22:57:45-04:00
; #@! TF.GenerationSoftware,Kicad,Pcbnew,(5.1.10)-1
; #@! TF.FileFunction,Plated,1,2,PTH
FMAT,2
INCH
T1C0.0157
T2C0.0236
T3C0.0315
T4C0.0394
T5C0.0433
T6C0.0472
T7C0.0630
%
G90
G05
T1
X1.4Y-3.76
X1.45Y-4.71
X1.45Y-5.175
X1.47Y-3.785
X1.7763Y-4.0337
X1.7987Y-3.9263
X2.075Y-3.81
X2.145Y-5.84
X2.26Y-4.12
X2.2713Y-5.5613
X2.45Y-5.355
X2.55Y-4.27
X2.6Y-5.72
X2.6Y-6.825
X2.6013Y-5.7787
X2.605Y-5.35
X2.625Y-4.425
X2.66Y-5.035
X2.7Y-5.27
X2.7115Y-6.7865
X2.735Y-4.47
X2.85Y-5.725
T2
X2.6Y-3.95
X2.6591Y-3.95
T3
X0.975Y-3.78
X0.975Y-3.88
X0.975Y-3.98
X0.975Y-4.08
X0.975Y-4.215
X1.275Y-3.78
X1.275Y-3.88
X1.275Y-3.98
X1.275Y-4.08
X1.275Y-4.215
X1.705Y-3.78
X1.705Y-3.88
X1.705Y-3.98
X1.705Y-4.08
X1.705Y-4.215
X1.835Y-3.295
X1.835Y-3.595
X1.955Y-3.295
X1.955Y-3.595
X2.005Y-3.78
X2.005Y-3.88
X2.005Y-3.98
X2.005Y-4.08
X2.005Y-4.215
X2.225Y-3.955
X2.225Y-4.255
X2.225Y-4.375
X2.225Y-4.675
X2.225Y-4.795
X2.225Y-5.095
X2.225Y-5.215
X2.225Y-5.515
X2.225Y-5.635
X2.225Y-5.935
X2.225Y-6.05
X2.225Y-6.35
X2.225Y-6.455
X2.225Y-6.755
X2.425Y-3.955
X2.425Y-4.255
X2.425Y-4.375
X2.425Y-4.675
X2.425Y-6.05
X2.425Y-6.35
X2.425Y-6.455
X2.425Y-6.755
X2.43Y-4.795
X2.43Y-5.095
X2.43Y-5.215
X2.43Y-5.515
X2.43Y-5.635
X2.43Y-5.935
X2.725Y-4.25
X2.725Y-4.55
X2.725Y-4.675
X2.725Y-4.975
X2.725Y-5.1
X2.725Y-5.4
X2.725Y-5.525
X2.725Y-5.825
X2.725Y-5.925
X2.725Y-6.225
X2.725Y-6.325
X2.725Y-6.625
X2.875Y-4.25
X2.875Y-4.55
X2.875Y-4.675
X2.875Y-4.975
X2.875Y-5.1
X2.875Y-5.4
X2.875Y-5.525
X2.875Y-5.825
X3.0Y-3.825
X3.0Y-3.925
X3.0Y-4.025
X3.0Y-4.125
X3.0Y-4.275
X3.0Y-4.425
X3.0Y-4.6
X3.0Y-4.7
X3.0Y-4.8
X3.0Y-4.9
X3.0Y-5.05
X3.0Y-5.175
X3.0Y-5.3
X3.0Y-5.45
X3.0Y-5.55
X3.0Y-5.65
X3.0Y-5.75
X3.0Y-5.925
X3.0Y-6.05
X3.0Y-6.175
X3.0Y-6.375
X3.0Y-6.475
X3.0Y-6.575
X3.0Y-6.675
X3.3Y-3.825
X3.3Y-3.925
X3.3Y-4.025
X3.3Y-4.125
X3.3Y-4.275
X3.3Y-4.425
X3.3Y-4.6
X3.3Y-4.7
X3.3Y-4.8
X3.3Y-4.9
X3.3Y-5.05
X3.3Y-5.175
X3.3Y-5.3
X3.3Y-5.45
X3.3Y-5.55
X3.3Y-5.65
X3.3Y-5.75
X3.3Y-5.925
X3.3Y-6.05
X3.3Y-6.175
X3.3Y-6.375
X3.3Y-6.475
X3.3Y-6.575
X3.3Y-6.675
T4
X0.835Y-4.36
X0.835Y-4.46
X0.835Y-4.56
X0.835Y-4.66
X0.835Y-4.76
X0.835Y-4.86
X0.835Y-4.96
X0.835Y-5.06
X0.835Y-5.16
X0.835Y-5.26
X0.835Y-5.36
X0.835Y-5.46
X0.835Y-5.56
X0.835Y-5.66
X0.835Y-5.76
X0.835Y-5.86
X0.835Y-5.96
X0.835Y-6.06
X0.835Y-6.16
X0.835Y-6.26
X0.835Y-6.36
X0.835Y-6.46
X0.835Y-6.56
X0.835Y-6.66
X0.84Y-3.305
X0.84Y-3.52
X0.84Y-3.68
X0.84Y-3.78
X0.84Y-3.88
X0.84Y-3.98
X0.84Y-4.08
X0.84Y-4.18
X0.94Y-3.305
X0.94Y-3.52
X0.98Y-4.36
X0.98Y-4.46
X0.98Y-4.56
X0.98Y-4.66
X0.98Y-4.76
X0.98Y-4.86
X0.98Y-4.96
X0.98Y-5.06
X0.98Y-5.16
X0.98Y-5.26
X0.98Y-5.36
X0.98Y-5.46
X0.98Y-5.56
X0.98Y-5.66
X0.98Y-5.76
X0.98Y-5.86
X0.98Y-5.96
X0.98Y-6.06
X0.98Y-6.16
X0.98Y-6.26
X0.98Y-6.36
X0.98Y-6.46
X0.98Y-6.56
X0.98Y-6.66
X1.04Y-3.305
X1.04Y-3.52
X1.14Y-3.305
X1.14Y-3.52
X1.24Y-3.305
X1.24Y-3.52
X1.34Y-3.305
X1.34Y-3.52
X1.44Y-3.305
X1.44Y-3.52
X1.54Y-3.305
X1.54Y-3.52
X1.64Y-3.305
X1.64Y-3.52
X1.935Y-4.36
X1.935Y-4.46
X1.935Y-4.56
X1.935Y-4.66
X1.935Y-4.76
X1.935Y-4.86
X1.935Y-4.96
X1.935Y-5.06
X1.935Y-5.16
X1.935Y-5.26
X1.935Y-5.36
X1.935Y-5.46
X1.935Y-5.56
X1.935Y-5.66
X1.935Y-5.76
X1.935Y-5.86
X1.935Y-5.96
X1.935Y-6.06
X1.935Y-6.16
X1.935Y-6.26
X1.935Y-6.36
X1.935Y-6.46
X1.935Y-6.56
X1.935Y-6.66
X2.075Y-4.36
X2.075Y-4.46
X2.075Y-4.56
X2.075Y-4.66
X2.075Y-4.76
X2.075Y-4.86
X2.075Y-4.96
X2.075Y-5.06
X2.075Y-5.16
X2.075Y-5.26
X2.075Y-5.36
X2.075Y-5.46
X2.075Y-5.56
X2.075Y-5.66
X2.075Y-5.76
X2.075Y-5.86
X2.075Y-5.96
X2.075Y-6.06
X2.075Y-6.16
X2.075Y-6.26
X2.075Y-6.36
X2.075Y-6.46
X2.075Y-6.56
X2.075Y-6.66
T5
X1.155Y-4.36
X1.155Y-4.46
X1.155Y-4.56
X1.155Y-4.66
X1.155Y-4.76
X1.155Y-4.86
X1.155Y-4.96
X1.155Y-5.06
X1.155Y-5.16
X1.155Y-5.26
X1.155Y-5.36
X1.155Y-5.46
X1.155Y-5.56
X1.155Y-5.66
X1.155Y-5.76
X1.155Y-5.86
X1.155Y-5.96
X1.155Y-6.06
X1.155Y-6.16
X1.155Y-6.26
X1.155Y-6.36
X1.155Y-6.46
X1.155Y-6.56
X1.155Y-6.66
X1.255Y-6.16
X1.2731Y-4.61
X1.2731Y-4.71
X1.2731Y-4.81
X1.2731Y-4.91
X1.2731Y-5.01
X1.355Y-6.16
X1.455Y-6.16
X1.555Y-6.16
X1.655Y-4.46
X1.655Y-4.66
X1.655Y-4.76
X1.655Y-4.86
X1.655Y-6.16
X1.755Y-4.36
X1.755Y-4.46
X1.755Y-4.56
X1.755Y-4.66
X1.755Y-4.76
X1.755Y-4.86
X1.755Y-4.96
X1.755Y-5.06
X1.755Y-5.16
X1.755Y-5.26
X1.755Y-5.36
X1.755Y-5.46
X1.755Y-5.56
X1.755Y-5.66
X1.755Y-5.76
X1.755Y-5.86
X1.755Y-5.96
X1.755Y-6.06
X1.755Y-6.16
X1.755Y-6.26
X1.755Y-6.36
X1.755Y-6.46
X1.755Y-6.56
X1.755Y-6.66
T6
X2.2031Y-3.575
X2.4Y-3.575
T7
X2.775Y-3.475
X2.8931Y-3.29
X3.0112Y-3.475
T0
M30
