%TF.GenerationSoftware,KiCad,Pcbnew,(5.1.10)-1*%
%TF.CreationDate,2023-07-22T23:02:35-04:00*%
%TF.ProjectId,dynamic clamp pcb,64796e61-6d69-4632-9063-6c616d702070,rev?*%
%TF.SameCoordinates,Original*%
%TF.FileFunction,Soldermask,Bot*%
%TF.FilePolarity,Negative*%
%FSLAX46Y46*%
G04 Gerber Fmt 4.6, Leading zero omitted, Abs format (unit mm)*
G04 Created by KiCad (PCBNEW (5.1.10)-1) date 2023-07-22 23:02:35*
%MOMM*%
%LPD*%
G01*
G04 APERTURE LIST*
%ADD10C,1.600000*%
%ADD11O,1.600000X1.600000*%
%ADD12R,2.400000X2.400000*%
%ADD13C,2.400000*%
%ADD14R,1.200000X1.200000*%
%ADD15C,1.200000*%
%ADD16R,1.700000X1.700000*%
%ADD17O,1.700000X1.700000*%
%ADD18R,2.600000X2.600000*%
%ADD19C,2.600000*%
%ADD20R,1.600000X1.600000*%
G04 APERTURE END LIST*
D10*
%TO.C,10k*%
X56515000Y-140081000D03*
D11*
X56515000Y-132461000D03*
%TD*%
%TO.C,10k*%
X83820000Y-150495000D03*
D10*
X76200000Y-150495000D03*
%TD*%
D12*
%TO.C,200uF*%
X55960000Y-90805000D03*
D13*
X60960000Y-90805000D03*
%TD*%
D14*
%TO.C,1uF*%
X66040000Y-100330000D03*
D15*
X67540000Y-100330000D03*
%TD*%
D16*
%TO.C,J1*%
X21336000Y-106172000D03*
D17*
X21336000Y-103632000D03*
X21336000Y-101092000D03*
X21336000Y-98552000D03*
X21336000Y-96012000D03*
X21336000Y-93472000D03*
%TD*%
D18*
%TO.C,J2*%
X70485000Y-88265000D03*
D19*
X76485000Y-88265000D03*
X73485000Y-83565000D03*
%TD*%
D16*
%TO.C,J6*%
X24892000Y-110744000D03*
D17*
X24892000Y-113284000D03*
X24892000Y-115824000D03*
X24892000Y-118364000D03*
X24892000Y-120904000D03*
X24892000Y-123444000D03*
X24892000Y-125984000D03*
X24892000Y-128524000D03*
X24892000Y-131064000D03*
X24892000Y-133604000D03*
X24892000Y-136144000D03*
X24892000Y-138684000D03*
X24892000Y-141224000D03*
X24892000Y-143764000D03*
X24892000Y-146304000D03*
X24892000Y-148844000D03*
X24892000Y-151384000D03*
X24892000Y-153924000D03*
X24892000Y-156464000D03*
X24892000Y-159004000D03*
X24892000Y-161544000D03*
X24892000Y-164084000D03*
X24892000Y-166624000D03*
X24892000Y-169164000D03*
%TD*%
%TO.C,J7*%
X49149000Y-169164000D03*
X49149000Y-166624000D03*
X49149000Y-164084000D03*
X49149000Y-161544000D03*
X49149000Y-159004000D03*
X49149000Y-156464000D03*
X49149000Y-153924000D03*
X49149000Y-151384000D03*
X49149000Y-148844000D03*
X49149000Y-146304000D03*
X49149000Y-143764000D03*
X49149000Y-141224000D03*
X49149000Y-138684000D03*
X49149000Y-136144000D03*
X49149000Y-133604000D03*
X49149000Y-131064000D03*
X49149000Y-128524000D03*
X49149000Y-125984000D03*
X49149000Y-123444000D03*
X49149000Y-120904000D03*
X49149000Y-118364000D03*
X49149000Y-115824000D03*
X49149000Y-113284000D03*
D16*
X49149000Y-110744000D03*
%TD*%
D11*
%TO.C,2.2k*%
X69215000Y-107950000D03*
D10*
X69215000Y-115570000D03*
%TD*%
D11*
%TO.C,470*%
X73025000Y-107950000D03*
D10*
X73025000Y-115570000D03*
%TD*%
%TO.C,4.7k*%
X76200000Y-108585000D03*
D11*
X83820000Y-108585000D03*
%TD*%
D10*
%TO.C,22k*%
X76200000Y-112395000D03*
D11*
X83820000Y-112395000D03*
%TD*%
%TO.C,10k*%
X69215000Y-126365000D03*
D10*
X69215000Y-118745000D03*
%TD*%
%TO.C,100*%
X73025000Y-118745000D03*
D11*
X73025000Y-126365000D03*
%TD*%
%TO.C,2.2k*%
X83820000Y-128270000D03*
D10*
X76200000Y-128270000D03*
%TD*%
%TO.C,10k*%
X76200000Y-131445000D03*
D11*
X83820000Y-131445000D03*
%TD*%
D10*
%TO.C,10k*%
X76200000Y-134620000D03*
D11*
X83820000Y-134620000D03*
%TD*%
%TO.C,10k*%
X69215000Y-137160000D03*
D10*
X69215000Y-129540000D03*
%TD*%
%TO.C,10k*%
X83820000Y-153670000D03*
D11*
X76200000Y-153670000D03*
%TD*%
%TO.C,10k*%
X83820000Y-156845000D03*
D10*
X76200000Y-156845000D03*
%TD*%
%TO.C,4.7k*%
X69215000Y-168275000D03*
D11*
X69215000Y-160655000D03*
%TD*%
D10*
%TO.C,10k*%
X69215000Y-158115000D03*
D11*
X69215000Y-150495000D03*
%TD*%
D10*
%TO.C,10k*%
X69215000Y-147955000D03*
D11*
X69215000Y-140335000D03*
%TD*%
%TO.C,4.7k*%
X73025000Y-147955000D03*
D10*
X73025000Y-140335000D03*
%TD*%
D11*
%TO.C,2.2k*%
X73025000Y-137160000D03*
D10*
X73025000Y-129540000D03*
%TD*%
D11*
%TO.C,LM358*%
X83820000Y-116840000D03*
X76200000Y-124460000D03*
X83820000Y-119380000D03*
X76200000Y-121920000D03*
X83820000Y-121920000D03*
X76200000Y-119380000D03*
X83820000Y-124460000D03*
D20*
X76200000Y-116840000D03*
%TD*%
%TO.C,LM358*%
X76200000Y-138430000D03*
D11*
X83820000Y-146050000D03*
X76200000Y-140970000D03*
X83820000Y-143510000D03*
X76200000Y-143510000D03*
X83820000Y-140970000D03*
X76200000Y-146050000D03*
X83820000Y-138430000D03*
%TD*%
D20*
%TO.C,LM358*%
X76200000Y-161925000D03*
D11*
X83820000Y-169545000D03*
X76200000Y-164465000D03*
X83820000Y-167005000D03*
X76200000Y-167005000D03*
X83820000Y-164465000D03*
X76200000Y-169545000D03*
X83820000Y-161925000D03*
%TD*%
%TO.C,TLE2426*%
X83820000Y-97155000D03*
X76200000Y-104775000D03*
X83820000Y-99695000D03*
X76200000Y-102235000D03*
X83820000Y-102235000D03*
X76200000Y-99695000D03*
X83820000Y-104775000D03*
D20*
X76200000Y-97155000D03*
%TD*%
D10*
%TO.C,U5*%
X29337000Y-151384000D03*
X29337000Y-153924000D03*
X29337000Y-156464000D03*
X29337000Y-159004000D03*
X29337000Y-148844000D03*
X29337000Y-146304000D03*
X29337000Y-143764000D03*
X29337000Y-161544000D03*
X29337000Y-164084000D03*
X29337000Y-166624000D03*
X29337000Y-169164000D03*
X31877000Y-156464000D03*
X34417000Y-156464000D03*
X36957000Y-156464000D03*
X39497000Y-156464000D03*
X42037000Y-156464000D03*
X44577000Y-169164000D03*
X44577000Y-166624000D03*
X44577000Y-164084000D03*
X44577000Y-161544000D03*
X44577000Y-159004000D03*
X44577000Y-156464000D03*
X44577000Y-153924000D03*
X44577000Y-151384000D03*
X29337000Y-141224000D03*
X29337000Y-138684000D03*
X29337000Y-136144000D03*
X29337000Y-133604000D03*
X29337000Y-131064000D03*
X29337000Y-128524000D03*
X29337000Y-125984000D03*
X29337000Y-123444000D03*
X29337000Y-120904000D03*
X29337000Y-118364000D03*
X29337000Y-115824000D03*
X29337000Y-113284000D03*
D20*
X29337000Y-110744000D03*
D10*
X44577000Y-148844000D03*
X44577000Y-146304000D03*
X44577000Y-143764000D03*
X44577000Y-141224000D03*
X44577000Y-138684000D03*
X44577000Y-136144000D03*
X44577000Y-133604000D03*
X44577000Y-131064000D03*
X44577000Y-128524000D03*
X44577000Y-125984000D03*
X44577000Y-123444000D03*
X44577000Y-120904000D03*
X44577000Y-118364000D03*
X44577000Y-115824000D03*
X44577000Y-113284000D03*
X44577000Y-110744000D03*
X42037000Y-113284000D03*
X42037000Y-118364000D03*
X42037000Y-120904000D03*
X42037000Y-123444000D03*
X32337000Y-117094000D03*
X32337000Y-119634000D03*
X32337000Y-122174000D03*
X32337000Y-124714000D03*
X32337000Y-127254000D03*
%TD*%
D17*
%TO.C,IN*%
X41656000Y-89408000D03*
X39116000Y-89408000D03*
X36576000Y-89408000D03*
X34036000Y-89408000D03*
X31496000Y-89408000D03*
X28956000Y-89408000D03*
X26416000Y-89408000D03*
X23876000Y-89408000D03*
D16*
X21336000Y-89408000D03*
%TD*%
%TO.C,GND*%
X21336000Y-83947000D03*
D17*
X23876000Y-83947000D03*
X26416000Y-83947000D03*
X28956000Y-83947000D03*
X31496000Y-83947000D03*
X34036000Y-83947000D03*
X36576000Y-83947000D03*
X39116000Y-83947000D03*
X41656000Y-83947000D03*
%TD*%
%TO.C,GND*%
X21209000Y-169164000D03*
X21209000Y-166624000D03*
X21209000Y-164084000D03*
X21209000Y-161544000D03*
X21209000Y-159004000D03*
X21209000Y-156464000D03*
X21209000Y-153924000D03*
X21209000Y-151384000D03*
X21209000Y-148844000D03*
X21209000Y-146304000D03*
X21209000Y-143764000D03*
X21209000Y-141224000D03*
X21209000Y-138684000D03*
X21209000Y-136144000D03*
X21209000Y-133604000D03*
X21209000Y-131064000D03*
X21209000Y-128524000D03*
X21209000Y-125984000D03*
X21209000Y-123444000D03*
X21209000Y-120904000D03*
X21209000Y-118364000D03*
X21209000Y-115824000D03*
X21209000Y-113284000D03*
D16*
X21209000Y-110744000D03*
%TD*%
D17*
%TO.C,J9*%
X52705000Y-169164000D03*
X52705000Y-166624000D03*
X52705000Y-164084000D03*
X52705000Y-161544000D03*
X52705000Y-159004000D03*
X52705000Y-156464000D03*
X52705000Y-153924000D03*
X52705000Y-151384000D03*
X52705000Y-148844000D03*
X52705000Y-146304000D03*
X52705000Y-143764000D03*
X52705000Y-141224000D03*
X52705000Y-138684000D03*
X52705000Y-136144000D03*
X52705000Y-133604000D03*
X52705000Y-131064000D03*
X52705000Y-128524000D03*
X52705000Y-125984000D03*
X52705000Y-123444000D03*
X52705000Y-120904000D03*
X52705000Y-118364000D03*
X52705000Y-115824000D03*
X52705000Y-113284000D03*
D16*
X52705000Y-110744000D03*
%TD*%
D11*
%TO.C,2.2k*%
X61595000Y-100457000D03*
D10*
X61595000Y-108077000D03*
%TD*%
D11*
%TO.C,470*%
X61595000Y-118745000D03*
D10*
X61595000Y-111125000D03*
%TD*%
%TO.C,4.7k*%
X56515000Y-100457000D03*
D11*
X56515000Y-108077000D03*
%TD*%
D10*
%TO.C,22k*%
X56515000Y-118745000D03*
D11*
X56515000Y-111125000D03*
%TD*%
D10*
%TO.C,10k*%
X56515000Y-121793000D03*
D11*
X56515000Y-129413000D03*
%TD*%
%TO.C,100*%
X61722000Y-129413000D03*
D10*
X61722000Y-121793000D03*
%TD*%
D11*
%TO.C,2.2k*%
X61722000Y-132461000D03*
D10*
X61722000Y-140081000D03*
%TD*%
%TO.C,10k*%
X32385000Y-107061000D03*
D11*
X24765000Y-107061000D03*
%TD*%
%TO.C,10k*%
X56515000Y-143129000D03*
D10*
X56515000Y-150749000D03*
%TD*%
%TO.C,10k*%
X61722000Y-143129000D03*
D11*
X61722000Y-150749000D03*
%TD*%
%TO.C,10k*%
X46609000Y-83693000D03*
D10*
X46609000Y-91313000D03*
%TD*%
%TO.C,10k*%
X61595000Y-153670000D03*
D11*
X61595000Y-161290000D03*
%TD*%
%TO.C,4.7k*%
X49657000Y-91313000D03*
D10*
X49657000Y-83693000D03*
%TD*%
%TO.C,10k*%
X56515000Y-153670000D03*
D11*
X56515000Y-161290000D03*
%TD*%
D10*
%TO.C,10k*%
X56515000Y-163957000D03*
D11*
X56515000Y-171577000D03*
%TD*%
%TO.C,4.7k*%
X61595000Y-163957000D03*
D10*
X61595000Y-171577000D03*
%TD*%
D11*
%TO.C,2.2k*%
X50927000Y-107061000D03*
D10*
X43307000Y-107061000D03*
%TD*%
D20*
%TO.C,LM358*%
X24765000Y-96012000D03*
D11*
X32385000Y-103632000D03*
X24765000Y-98552000D03*
X32385000Y-101092000D03*
X24765000Y-101092000D03*
X32385000Y-98552000D03*
X24765000Y-103632000D03*
X32385000Y-96012000D03*
%TD*%
%TO.C,LM358*%
X50927000Y-96012000D03*
X43307000Y-103632000D03*
X50927000Y-98552000D03*
X43307000Y-101092000D03*
X50927000Y-101092000D03*
X43307000Y-98552000D03*
X50927000Y-103632000D03*
D20*
X43307000Y-96012000D03*
%TD*%
M02*
