%TF.GenerationSoftware,KiCad,Pcbnew,(5.1.10)-1*%
%TF.CreationDate,2022-09-02T22:27:05-04:00*%
%TF.ProjectId,dynamic clamp pcb,64796e61-6d69-4632-9063-6c616d702070,rev?*%
%TF.SameCoordinates,Original*%
%TF.FileFunction,Legend,Top*%
%TF.FilePolarity,Positive*%
%FSLAX46Y46*%
G04 Gerber Fmt 4.6, Leading zero omitted, Abs format (unit mm)*
G04 Created by KiCad (PCBNEW (5.1.10)-1) date 2022-09-02 22:27:05*
%MOMM*%
%LPD*%
G01*
G04 APERTURE LIST*
%ADD10C,0.150000*%
%ADD11C,0.120000*%
%ADD12C,0.100000*%
G04 APERTURE END LIST*
D10*
X37322857Y-102307380D02*
X37322857Y-101307380D01*
X37703809Y-101307380D01*
X37799047Y-101355000D01*
X37846666Y-101402619D01*
X37894285Y-101497857D01*
X37894285Y-101640714D01*
X37846666Y-101735952D01*
X37799047Y-101783571D01*
X37703809Y-101831190D01*
X37322857Y-101831190D01*
X38751428Y-101640714D02*
X38751428Y-102307380D01*
X38322857Y-101640714D02*
X38322857Y-102164523D01*
X38370476Y-102259761D01*
X38465714Y-102307380D01*
X38608571Y-102307380D01*
X38703809Y-102259761D01*
X38751428Y-102212142D01*
X39227619Y-102307380D02*
X39227619Y-101640714D01*
X39227619Y-101831190D02*
X39275238Y-101735952D01*
X39322857Y-101688333D01*
X39418095Y-101640714D01*
X39513333Y-101640714D01*
X40275238Y-102307380D02*
X40275238Y-101307380D01*
X40275238Y-102259761D02*
X40180000Y-102307380D01*
X39989523Y-102307380D01*
X39894285Y-102259761D01*
X39846666Y-102212142D01*
X39799047Y-102116904D01*
X39799047Y-101831190D01*
X39846666Y-101735952D01*
X39894285Y-101688333D01*
X39989523Y-101640714D01*
X40180000Y-101640714D01*
X40275238Y-101688333D01*
X41180000Y-101640714D02*
X41180000Y-102307380D01*
X40751428Y-101640714D02*
X40751428Y-102164523D01*
X40799047Y-102259761D01*
X40894285Y-102307380D01*
X41037142Y-102307380D01*
X41132380Y-102259761D01*
X41180000Y-102212142D01*
X42037142Y-102259761D02*
X41941904Y-102307380D01*
X41751428Y-102307380D01*
X41656190Y-102259761D01*
X41608571Y-102164523D01*
X41608571Y-101783571D01*
X41656190Y-101688333D01*
X41751428Y-101640714D01*
X41941904Y-101640714D01*
X42037142Y-101688333D01*
X42084761Y-101783571D01*
X42084761Y-101878809D01*
X41608571Y-101974047D01*
X43275238Y-102307380D02*
X43275238Y-101307380D01*
X43846666Y-102307380D01*
X43846666Y-101307380D01*
X44322857Y-102307380D02*
X44322857Y-101307380D01*
X44894285Y-102307380D01*
X44894285Y-101307380D01*
X45227619Y-101307380D02*
X45799047Y-101307380D01*
X45513333Y-102307380D02*
X45513333Y-101307380D01*
X47370476Y-102307380D02*
X46894285Y-102307380D01*
X46894285Y-101307380D01*
X48132380Y-102307380D02*
X48132380Y-101783571D01*
X48084761Y-101688333D01*
X47989523Y-101640714D01*
X47799047Y-101640714D01*
X47703809Y-101688333D01*
X48132380Y-102259761D02*
X48037142Y-102307380D01*
X47799047Y-102307380D01*
X47703809Y-102259761D01*
X47656190Y-102164523D01*
X47656190Y-102069285D01*
X47703809Y-101974047D01*
X47799047Y-101926428D01*
X48037142Y-101926428D01*
X48132380Y-101878809D01*
X48608571Y-102307380D02*
X48608571Y-101307380D01*
X48608571Y-101688333D02*
X48703809Y-101640714D01*
X48894285Y-101640714D01*
X48989523Y-101688333D01*
X49037142Y-101735952D01*
X49084761Y-101831190D01*
X49084761Y-102116904D01*
X49037142Y-102212142D01*
X48989523Y-102259761D01*
X48894285Y-102307380D01*
X48703809Y-102307380D01*
X48608571Y-102259761D01*
X36846666Y-103957380D02*
X36846666Y-102957380D01*
X36846666Y-103909761D02*
X36751428Y-103957380D01*
X36560952Y-103957380D01*
X36465714Y-103909761D01*
X36418095Y-103862142D01*
X36370476Y-103766904D01*
X36370476Y-103481190D01*
X36418095Y-103385952D01*
X36465714Y-103338333D01*
X36560952Y-103290714D01*
X36751428Y-103290714D01*
X36846666Y-103338333D01*
X37227619Y-103290714D02*
X37465714Y-103957380D01*
X37703809Y-103290714D02*
X37465714Y-103957380D01*
X37370476Y-104195476D01*
X37322857Y-104243095D01*
X37227619Y-104290714D01*
X38084761Y-103290714D02*
X38084761Y-103957380D01*
X38084761Y-103385952D02*
X38132380Y-103338333D01*
X38227619Y-103290714D01*
X38370476Y-103290714D01*
X38465714Y-103338333D01*
X38513333Y-103433571D01*
X38513333Y-103957380D01*
X39418095Y-103957380D02*
X39418095Y-103433571D01*
X39370476Y-103338333D01*
X39275238Y-103290714D01*
X39084761Y-103290714D01*
X38989523Y-103338333D01*
X39418095Y-103909761D02*
X39322857Y-103957380D01*
X39084761Y-103957380D01*
X38989523Y-103909761D01*
X38941904Y-103814523D01*
X38941904Y-103719285D01*
X38989523Y-103624047D01*
X39084761Y-103576428D01*
X39322857Y-103576428D01*
X39418095Y-103528809D01*
X39894285Y-103957380D02*
X39894285Y-103290714D01*
X39894285Y-103385952D02*
X39941904Y-103338333D01*
X40037142Y-103290714D01*
X40180000Y-103290714D01*
X40275238Y-103338333D01*
X40322857Y-103433571D01*
X40322857Y-103957380D01*
X40322857Y-103433571D02*
X40370476Y-103338333D01*
X40465714Y-103290714D01*
X40608571Y-103290714D01*
X40703809Y-103338333D01*
X40751428Y-103433571D01*
X40751428Y-103957380D01*
X41227619Y-103957380D02*
X41227619Y-103290714D01*
X41227619Y-102957380D02*
X41180000Y-103005000D01*
X41227619Y-103052619D01*
X41275238Y-103005000D01*
X41227619Y-102957380D01*
X41227619Y-103052619D01*
X42132380Y-103909761D02*
X42037142Y-103957380D01*
X41846666Y-103957380D01*
X41751428Y-103909761D01*
X41703809Y-103862142D01*
X41656190Y-103766904D01*
X41656190Y-103481190D01*
X41703809Y-103385952D01*
X41751428Y-103338333D01*
X41846666Y-103290714D01*
X42037142Y-103290714D01*
X42132380Y-103338333D01*
X43751428Y-103909761D02*
X43656190Y-103957380D01*
X43465714Y-103957380D01*
X43370476Y-103909761D01*
X43322857Y-103862142D01*
X43275238Y-103766904D01*
X43275238Y-103481190D01*
X43322857Y-103385952D01*
X43370476Y-103338333D01*
X43465714Y-103290714D01*
X43656190Y-103290714D01*
X43751428Y-103338333D01*
X44322857Y-103957380D02*
X44227619Y-103909761D01*
X44180000Y-103814523D01*
X44180000Y-102957380D01*
X45132380Y-103957380D02*
X45132380Y-103433571D01*
X45084761Y-103338333D01*
X44989523Y-103290714D01*
X44799047Y-103290714D01*
X44703809Y-103338333D01*
X45132380Y-103909761D02*
X45037142Y-103957380D01*
X44799047Y-103957380D01*
X44703809Y-103909761D01*
X44656190Y-103814523D01*
X44656190Y-103719285D01*
X44703809Y-103624047D01*
X44799047Y-103576428D01*
X45037142Y-103576428D01*
X45132380Y-103528809D01*
X45608571Y-103957380D02*
X45608571Y-103290714D01*
X45608571Y-103385952D02*
X45656190Y-103338333D01*
X45751428Y-103290714D01*
X45894285Y-103290714D01*
X45989523Y-103338333D01*
X46037142Y-103433571D01*
X46037142Y-103957380D01*
X46037142Y-103433571D02*
X46084761Y-103338333D01*
X46180000Y-103290714D01*
X46322857Y-103290714D01*
X46418095Y-103338333D01*
X46465714Y-103433571D01*
X46465714Y-103957380D01*
X46941904Y-103290714D02*
X46941904Y-104290714D01*
X46941904Y-103338333D02*
X47037142Y-103290714D01*
X47227619Y-103290714D01*
X47322857Y-103338333D01*
X47370476Y-103385952D01*
X47418095Y-103481190D01*
X47418095Y-103766904D01*
X47370476Y-103862142D01*
X47322857Y-103909761D01*
X47227619Y-103957380D01*
X47037142Y-103957380D01*
X46941904Y-103909761D01*
X48465714Y-102957380D02*
X48799047Y-103957380D01*
X49132380Y-102957380D01*
X49418095Y-103052619D02*
X49465714Y-103005000D01*
X49560952Y-102957380D01*
X49799047Y-102957380D01*
X49894285Y-103005000D01*
X49941904Y-103052619D01*
X49989523Y-103147857D01*
X49989523Y-103243095D01*
X49941904Y-103385952D01*
X49370476Y-103957380D01*
X49989523Y-103957380D01*
X40822857Y-105559761D02*
X40965714Y-105607380D01*
X41203809Y-105607380D01*
X41299047Y-105559761D01*
X41346666Y-105512142D01*
X41394285Y-105416904D01*
X41394285Y-105321666D01*
X41346666Y-105226428D01*
X41299047Y-105178809D01*
X41203809Y-105131190D01*
X41013333Y-105083571D01*
X40918095Y-105035952D01*
X40870476Y-104988333D01*
X40822857Y-104893095D01*
X40822857Y-104797857D01*
X40870476Y-104702619D01*
X40918095Y-104655000D01*
X41013333Y-104607380D01*
X41251428Y-104607380D01*
X41394285Y-104655000D01*
X41822857Y-105607380D02*
X41822857Y-104607380D01*
X42251428Y-105607380D02*
X42251428Y-105083571D01*
X42203809Y-104988333D01*
X42108571Y-104940714D01*
X41965714Y-104940714D01*
X41870476Y-104988333D01*
X41822857Y-105035952D01*
X43156190Y-104940714D02*
X43156190Y-105607380D01*
X42727619Y-104940714D02*
X42727619Y-105464523D01*
X42775238Y-105559761D01*
X42870476Y-105607380D01*
X43013333Y-105607380D01*
X43108571Y-105559761D01*
X43156190Y-105512142D01*
X43775238Y-105607380D02*
X43680000Y-105559761D01*
X43632380Y-105464523D01*
X43632380Y-104607380D01*
X44584761Y-105607380D02*
X44584761Y-105083571D01*
X44537142Y-104988333D01*
X44441904Y-104940714D01*
X44251428Y-104940714D01*
X44156190Y-104988333D01*
X44584761Y-105559761D02*
X44489523Y-105607380D01*
X44251428Y-105607380D01*
X44156190Y-105559761D01*
X44108571Y-105464523D01*
X44108571Y-105369285D01*
X44156190Y-105274047D01*
X44251428Y-105226428D01*
X44489523Y-105226428D01*
X44584761Y-105178809D01*
X45060952Y-104940714D02*
X45060952Y-105607380D01*
X45060952Y-105035952D02*
X45108571Y-104988333D01*
X45203809Y-104940714D01*
X45346666Y-104940714D01*
X45441904Y-104988333D01*
X45489523Y-105083571D01*
X45489523Y-105607380D01*
X50149285Y-95337380D02*
X50720714Y-95337380D01*
X50435000Y-96337380D02*
X50435000Y-95337380D01*
X51054047Y-96337380D02*
X51054047Y-95670714D01*
X51054047Y-95861190D02*
X51101666Y-95765952D01*
X51149285Y-95718333D01*
X51244523Y-95670714D01*
X51339761Y-95670714D01*
X51673095Y-96337380D02*
X51673095Y-95670714D01*
X51673095Y-95337380D02*
X51625476Y-95385000D01*
X51673095Y-95432619D01*
X51720714Y-95385000D01*
X51673095Y-95337380D01*
X51673095Y-95432619D01*
X52577857Y-95670714D02*
X52577857Y-96480238D01*
X52530238Y-96575476D01*
X52482619Y-96623095D01*
X52387380Y-96670714D01*
X52244523Y-96670714D01*
X52149285Y-96623095D01*
X52577857Y-96289761D02*
X52482619Y-96337380D01*
X52292142Y-96337380D01*
X52196904Y-96289761D01*
X52149285Y-96242142D01*
X52101666Y-96146904D01*
X52101666Y-95861190D01*
X52149285Y-95765952D01*
X52196904Y-95718333D01*
X52292142Y-95670714D01*
X52482619Y-95670714D01*
X52577857Y-95718333D01*
X50165238Y-92797380D02*
X50498571Y-93797380D01*
X50831904Y-92797380D01*
X51593809Y-93797380D02*
X51593809Y-93273571D01*
X51546190Y-93178333D01*
X51450952Y-93130714D01*
X51260476Y-93130714D01*
X51165238Y-93178333D01*
X51593809Y-93749761D02*
X51498571Y-93797380D01*
X51260476Y-93797380D01*
X51165238Y-93749761D01*
X51117619Y-93654523D01*
X51117619Y-93559285D01*
X51165238Y-93464047D01*
X51260476Y-93416428D01*
X51498571Y-93416428D01*
X51593809Y-93368809D01*
X52070000Y-93797380D02*
X52070000Y-93130714D01*
X52070000Y-93225952D02*
X52117619Y-93178333D01*
X52212857Y-93130714D01*
X52355714Y-93130714D01*
X52450952Y-93178333D01*
X52498571Y-93273571D01*
X52498571Y-93797380D01*
X52498571Y-93273571D02*
X52546190Y-93178333D01*
X52641428Y-93130714D01*
X52784285Y-93130714D01*
X52879523Y-93178333D01*
X52927142Y-93273571D01*
X52927142Y-93797380D01*
X53403333Y-93130714D02*
X53403333Y-94130714D01*
X53403333Y-93178333D02*
X53498571Y-93130714D01*
X53689047Y-93130714D01*
X53784285Y-93178333D01*
X53831904Y-93225952D01*
X53879523Y-93321190D01*
X53879523Y-93606904D01*
X53831904Y-93702142D01*
X53784285Y-93749761D01*
X53689047Y-93797380D01*
X53498571Y-93797380D01*
X53403333Y-93749761D01*
X50284285Y-90257380D02*
X50617619Y-91257380D01*
X50950952Y-90257380D01*
X51284285Y-91257380D02*
X51284285Y-90257380D01*
X51522380Y-90257380D01*
X51665238Y-90305000D01*
X51760476Y-90400238D01*
X51808095Y-90495476D01*
X51855714Y-90685952D01*
X51855714Y-90828809D01*
X51808095Y-91019285D01*
X51760476Y-91114523D01*
X51665238Y-91209761D01*
X51522380Y-91257380D01*
X51284285Y-91257380D01*
X52236666Y-90971666D02*
X52712857Y-90971666D01*
X52141428Y-91257380D02*
X52474761Y-90257380D01*
X52808095Y-91257380D01*
X53808095Y-91352619D02*
X53712857Y-91305000D01*
X53617619Y-91209761D01*
X53474761Y-91066904D01*
X53379523Y-91019285D01*
X53284285Y-91019285D01*
X53331904Y-91257380D02*
X53236666Y-91209761D01*
X53141428Y-91114523D01*
X53093809Y-90924047D01*
X53093809Y-90590714D01*
X53141428Y-90400238D01*
X53236666Y-90305000D01*
X53331904Y-90257380D01*
X53522380Y-90257380D01*
X53617619Y-90305000D01*
X53712857Y-90400238D01*
X53760476Y-90590714D01*
X53760476Y-90924047D01*
X53712857Y-91114523D01*
X53617619Y-91209761D01*
X53522380Y-91257380D01*
X53331904Y-91257380D01*
X50435000Y-87717380D02*
X50768333Y-88717380D01*
X51101666Y-87717380D01*
X51435000Y-88717380D02*
X51435000Y-88050714D01*
X51435000Y-88145952D02*
X51482619Y-88098333D01*
X51577857Y-88050714D01*
X51720714Y-88050714D01*
X51815952Y-88098333D01*
X51863571Y-88193571D01*
X51863571Y-88717380D01*
X51863571Y-88193571D02*
X51911190Y-88098333D01*
X52006428Y-88050714D01*
X52149285Y-88050714D01*
X52244523Y-88098333D01*
X52292142Y-88193571D01*
X52292142Y-88717380D01*
D11*
%TO.C,R11 10k*%
X76740000Y-149455000D02*
X76740000Y-149125000D01*
X76740000Y-149125000D02*
X83280000Y-149125000D01*
X83280000Y-149125000D02*
X83280000Y-149455000D01*
X76740000Y-151535000D02*
X76740000Y-151865000D01*
X76740000Y-151865000D02*
X83280000Y-151865000D01*
X83280000Y-151865000D02*
X83280000Y-151535000D01*
%TO.C,C1 200uF*%
X52267918Y-86605000D02*
X52267918Y-87855000D01*
X51642918Y-87230000D02*
X52892918Y-87230000D01*
X64821000Y-90488000D02*
X64821000Y-91122000D01*
X64781000Y-90048000D02*
X64781000Y-91562000D01*
X64741000Y-89777000D02*
X64741000Y-91833000D01*
X64701000Y-89564000D02*
X64701000Y-92046000D01*
X64661000Y-89383000D02*
X64661000Y-92227000D01*
X64621000Y-89222000D02*
X64621000Y-92388000D01*
X64581000Y-89077000D02*
X64581000Y-92533000D01*
X64541000Y-88944000D02*
X64541000Y-92666000D01*
X64501000Y-88821000D02*
X64501000Y-92789000D01*
X64461000Y-88705000D02*
X64461000Y-92905000D01*
X64421000Y-88596000D02*
X64421000Y-93014000D01*
X64381000Y-88493000D02*
X64381000Y-93117000D01*
X64341000Y-88395000D02*
X64341000Y-93215000D01*
X64301000Y-88301000D02*
X64301000Y-93309000D01*
X64261000Y-88211000D02*
X64261000Y-93399000D01*
X64221000Y-88124000D02*
X64221000Y-93486000D01*
X64181000Y-88041000D02*
X64181000Y-93569000D01*
X64141000Y-87961000D02*
X64141000Y-93649000D01*
X64101000Y-87884000D02*
X64101000Y-93726000D01*
X64061000Y-87809000D02*
X64061000Y-93801000D01*
X64021000Y-87736000D02*
X64021000Y-93874000D01*
X63981000Y-87665000D02*
X63981000Y-93945000D01*
X63941000Y-87597000D02*
X63941000Y-94013000D01*
X63901000Y-87530000D02*
X63901000Y-94080000D01*
X63861000Y-87466000D02*
X63861000Y-94144000D01*
X63821000Y-87403000D02*
X63821000Y-94207000D01*
X63781000Y-87341000D02*
X63781000Y-94269000D01*
X63741000Y-87281000D02*
X63741000Y-94329000D01*
X63701000Y-87222000D02*
X63701000Y-94388000D01*
X63661000Y-87165000D02*
X63661000Y-94445000D01*
X63621000Y-87109000D02*
X63621000Y-94501000D01*
X63581000Y-87055000D02*
X63581000Y-94555000D01*
X63541000Y-87001000D02*
X63541000Y-94609000D01*
X63501000Y-86949000D02*
X63501000Y-94661000D01*
X63461000Y-86898000D02*
X63461000Y-94712000D01*
X63421000Y-86848000D02*
X63421000Y-94762000D01*
X63381000Y-86798000D02*
X63381000Y-94812000D01*
X63341000Y-86750000D02*
X63341000Y-94860000D01*
X63301000Y-86703000D02*
X63301000Y-94907000D01*
X63261000Y-86657000D02*
X63261000Y-94953000D01*
X63221000Y-86611000D02*
X63221000Y-94999000D01*
X63181000Y-86567000D02*
X63181000Y-95043000D01*
X63141000Y-86523000D02*
X63141000Y-95087000D01*
X63101000Y-86480000D02*
X63101000Y-95130000D01*
X63061000Y-86438000D02*
X63061000Y-95172000D01*
X63021000Y-86397000D02*
X63021000Y-95213000D01*
X62981000Y-86356000D02*
X62981000Y-95254000D01*
X62941000Y-86316000D02*
X62941000Y-95294000D01*
X62901000Y-86277000D02*
X62901000Y-95333000D01*
X62861000Y-86238000D02*
X62861000Y-95372000D01*
X62821000Y-86200000D02*
X62821000Y-95410000D01*
X62781000Y-86163000D02*
X62781000Y-95447000D01*
X62741000Y-86127000D02*
X62741000Y-95483000D01*
X62701000Y-86091000D02*
X62701000Y-95519000D01*
X62661000Y-86055000D02*
X62661000Y-95555000D01*
X62621000Y-86020000D02*
X62621000Y-95590000D01*
X62581000Y-85986000D02*
X62581000Y-95624000D01*
X62541000Y-85953000D02*
X62541000Y-95657000D01*
X62501000Y-85920000D02*
X62501000Y-95690000D01*
X62461000Y-85887000D02*
X62461000Y-95723000D01*
X62421000Y-85855000D02*
X62421000Y-95755000D01*
X62381000Y-92245000D02*
X62381000Y-95787000D01*
X62381000Y-85823000D02*
X62381000Y-89365000D01*
X62341000Y-92245000D02*
X62341000Y-95817000D01*
X62341000Y-85793000D02*
X62341000Y-89365000D01*
X62301000Y-92245000D02*
X62301000Y-95848000D01*
X62301000Y-85762000D02*
X62301000Y-89365000D01*
X62261000Y-92245000D02*
X62261000Y-95878000D01*
X62261000Y-85732000D02*
X62261000Y-89365000D01*
X62221000Y-92245000D02*
X62221000Y-95907000D01*
X62221000Y-85703000D02*
X62221000Y-89365000D01*
X62181000Y-92245000D02*
X62181000Y-95936000D01*
X62181000Y-85674000D02*
X62181000Y-89365000D01*
X62141000Y-92245000D02*
X62141000Y-95965000D01*
X62141000Y-85645000D02*
X62141000Y-89365000D01*
X62101000Y-92245000D02*
X62101000Y-95993000D01*
X62101000Y-85617000D02*
X62101000Y-89365000D01*
X62061000Y-92245000D02*
X62061000Y-96021000D01*
X62061000Y-85589000D02*
X62061000Y-89365000D01*
X62021000Y-92245000D02*
X62021000Y-96048000D01*
X62021000Y-85562000D02*
X62021000Y-89365000D01*
X61981000Y-92245000D02*
X61981000Y-96075000D01*
X61981000Y-85535000D02*
X61981000Y-89365000D01*
X61941000Y-92245000D02*
X61941000Y-96101000D01*
X61941000Y-85509000D02*
X61941000Y-89365000D01*
X61901000Y-92245000D02*
X61901000Y-96127000D01*
X61901000Y-85483000D02*
X61901000Y-89365000D01*
X61861000Y-92245000D02*
X61861000Y-96152000D01*
X61861000Y-85458000D02*
X61861000Y-89365000D01*
X61821000Y-92245000D02*
X61821000Y-96177000D01*
X61821000Y-85433000D02*
X61821000Y-89365000D01*
X61781000Y-92245000D02*
X61781000Y-96202000D01*
X61781000Y-85408000D02*
X61781000Y-89365000D01*
X61741000Y-92245000D02*
X61741000Y-96226000D01*
X61741000Y-85384000D02*
X61741000Y-89365000D01*
X61701000Y-92245000D02*
X61701000Y-96250000D01*
X61701000Y-85360000D02*
X61701000Y-89365000D01*
X61661000Y-92245000D02*
X61661000Y-96273000D01*
X61661000Y-85337000D02*
X61661000Y-89365000D01*
X61621000Y-92245000D02*
X61621000Y-96296000D01*
X61621000Y-85314000D02*
X61621000Y-89365000D01*
X61581000Y-92245000D02*
X61581000Y-96319000D01*
X61581000Y-85291000D02*
X61581000Y-89365000D01*
X61541000Y-92245000D02*
X61541000Y-96341000D01*
X61541000Y-85269000D02*
X61541000Y-89365000D01*
X61501000Y-92245000D02*
X61501000Y-96363000D01*
X61501000Y-85247000D02*
X61501000Y-89365000D01*
X61461000Y-92245000D02*
X61461000Y-96385000D01*
X61461000Y-85225000D02*
X61461000Y-89365000D01*
X61421000Y-92245000D02*
X61421000Y-96406000D01*
X61421000Y-85204000D02*
X61421000Y-89365000D01*
X61381000Y-92245000D02*
X61381000Y-96427000D01*
X61381000Y-85183000D02*
X61381000Y-89365000D01*
X61341000Y-92245000D02*
X61341000Y-96447000D01*
X61341000Y-85163000D02*
X61341000Y-89365000D01*
X61301000Y-92245000D02*
X61301000Y-96467000D01*
X61301000Y-85143000D02*
X61301000Y-89365000D01*
X61261000Y-92245000D02*
X61261000Y-96487000D01*
X61261000Y-85123000D02*
X61261000Y-89365000D01*
X61221000Y-92245000D02*
X61221000Y-96507000D01*
X61221000Y-85103000D02*
X61221000Y-89365000D01*
X61181000Y-92245000D02*
X61181000Y-96526000D01*
X61181000Y-85084000D02*
X61181000Y-89365000D01*
X61141000Y-92245000D02*
X61141000Y-96544000D01*
X61141000Y-85066000D02*
X61141000Y-89365000D01*
X61101000Y-92245000D02*
X61101000Y-96563000D01*
X61101000Y-85047000D02*
X61101000Y-89365000D01*
X61061000Y-92245000D02*
X61061000Y-96581000D01*
X61061000Y-85029000D02*
X61061000Y-89365000D01*
X61021000Y-92245000D02*
X61021000Y-96598000D01*
X61021000Y-85012000D02*
X61021000Y-89365000D01*
X60981000Y-92245000D02*
X60981000Y-96616000D01*
X60981000Y-84994000D02*
X60981000Y-89365000D01*
X60941000Y-92245000D02*
X60941000Y-96633000D01*
X60941000Y-84977000D02*
X60941000Y-89365000D01*
X60901000Y-92245000D02*
X60901000Y-96650000D01*
X60901000Y-84960000D02*
X60901000Y-89365000D01*
X60861000Y-92245000D02*
X60861000Y-96666000D01*
X60861000Y-84944000D02*
X60861000Y-89365000D01*
X60821000Y-92245000D02*
X60821000Y-96682000D01*
X60821000Y-84928000D02*
X60821000Y-89365000D01*
X60781000Y-92245000D02*
X60781000Y-96698000D01*
X60781000Y-84912000D02*
X60781000Y-89365000D01*
X60741000Y-92245000D02*
X60741000Y-96713000D01*
X60741000Y-84897000D02*
X60741000Y-89365000D01*
X60701000Y-92245000D02*
X60701000Y-96729000D01*
X60701000Y-84881000D02*
X60701000Y-89365000D01*
X60661000Y-92245000D02*
X60661000Y-96744000D01*
X60661000Y-84866000D02*
X60661000Y-89365000D01*
X60621000Y-92245000D02*
X60621000Y-96758000D01*
X60621000Y-84852000D02*
X60621000Y-89365000D01*
X60581000Y-92245000D02*
X60581000Y-96772000D01*
X60581000Y-84838000D02*
X60581000Y-89365000D01*
X60541000Y-92245000D02*
X60541000Y-96786000D01*
X60541000Y-84824000D02*
X60541000Y-89365000D01*
X60501000Y-92245000D02*
X60501000Y-96800000D01*
X60501000Y-84810000D02*
X60501000Y-89365000D01*
X60461000Y-92245000D02*
X60461000Y-96813000D01*
X60461000Y-84797000D02*
X60461000Y-89365000D01*
X60421000Y-92245000D02*
X60421000Y-96826000D01*
X60421000Y-84784000D02*
X60421000Y-89365000D01*
X60381000Y-92245000D02*
X60381000Y-96839000D01*
X60381000Y-84771000D02*
X60381000Y-89365000D01*
X60341000Y-92245000D02*
X60341000Y-96852000D01*
X60341000Y-84758000D02*
X60341000Y-89365000D01*
X60301000Y-92245000D02*
X60301000Y-96864000D01*
X60301000Y-84746000D02*
X60301000Y-89365000D01*
X60261000Y-92245000D02*
X60261000Y-96876000D01*
X60261000Y-84734000D02*
X60261000Y-89365000D01*
X60221000Y-92245000D02*
X60221000Y-96888000D01*
X60221000Y-84722000D02*
X60221000Y-89365000D01*
X60181000Y-92245000D02*
X60181000Y-96899000D01*
X60181000Y-84711000D02*
X60181000Y-89365000D01*
X60141000Y-92245000D02*
X60141000Y-96910000D01*
X60141000Y-84700000D02*
X60141000Y-89365000D01*
X60101000Y-92245000D02*
X60101000Y-96921000D01*
X60101000Y-84689000D02*
X60101000Y-89365000D01*
X60061000Y-92245000D02*
X60061000Y-96931000D01*
X60061000Y-84679000D02*
X60061000Y-89365000D01*
X60021000Y-92245000D02*
X60021000Y-96942000D01*
X60021000Y-84668000D02*
X60021000Y-89365000D01*
X59981000Y-92245000D02*
X59981000Y-96951000D01*
X59981000Y-84659000D02*
X59981000Y-89365000D01*
X59941000Y-92245000D02*
X59941000Y-96961000D01*
X59941000Y-84649000D02*
X59941000Y-89365000D01*
X59901000Y-92245000D02*
X59901000Y-96971000D01*
X59901000Y-84639000D02*
X59901000Y-89365000D01*
X59861000Y-92245000D02*
X59861000Y-96980000D01*
X59861000Y-84630000D02*
X59861000Y-89365000D01*
X59821000Y-92245000D02*
X59821000Y-96989000D01*
X59821000Y-84621000D02*
X59821000Y-89365000D01*
X59781000Y-92245000D02*
X59781000Y-96997000D01*
X59781000Y-84613000D02*
X59781000Y-89365000D01*
X59741000Y-92245000D02*
X59741000Y-97006000D01*
X59741000Y-84604000D02*
X59741000Y-89365000D01*
X59701000Y-92245000D02*
X59701000Y-97014000D01*
X59701000Y-84596000D02*
X59701000Y-89365000D01*
X59661000Y-92245000D02*
X59661000Y-97021000D01*
X59661000Y-84589000D02*
X59661000Y-89365000D01*
X59621000Y-92245000D02*
X59621000Y-97029000D01*
X59621000Y-84581000D02*
X59621000Y-89365000D01*
X59581000Y-92245000D02*
X59581000Y-97036000D01*
X59581000Y-84574000D02*
X59581000Y-89365000D01*
X59541000Y-92245000D02*
X59541000Y-97043000D01*
X59541000Y-84567000D02*
X59541000Y-89365000D01*
X59501000Y-84560000D02*
X59501000Y-97050000D01*
X59461000Y-84553000D02*
X59461000Y-97057000D01*
X59421000Y-84547000D02*
X59421000Y-97063000D01*
X59381000Y-84541000D02*
X59381000Y-97069000D01*
X59341000Y-84536000D02*
X59341000Y-97074000D01*
X59301000Y-84530000D02*
X59301000Y-97080000D01*
X59261000Y-84525000D02*
X59261000Y-97085000D01*
X59221000Y-84520000D02*
X59221000Y-97090000D01*
X59181000Y-84515000D02*
X59181000Y-97095000D01*
X59140000Y-84511000D02*
X59140000Y-97099000D01*
X59100000Y-84507000D02*
X59100000Y-97103000D01*
X59060000Y-84503000D02*
X59060000Y-97107000D01*
X59020000Y-84499000D02*
X59020000Y-97111000D01*
X58980000Y-84496000D02*
X58980000Y-97114000D01*
X58940000Y-84493000D02*
X58940000Y-97117000D01*
X58900000Y-84490000D02*
X58900000Y-97120000D01*
X58860000Y-84487000D02*
X58860000Y-97123000D01*
X58820000Y-84485000D02*
X58820000Y-97125000D01*
X58780000Y-84483000D02*
X58780000Y-97127000D01*
X58740000Y-84481000D02*
X58740000Y-97129000D01*
X58700000Y-84479000D02*
X58700000Y-97131000D01*
X58660000Y-84478000D02*
X58660000Y-97132000D01*
X58620000Y-84477000D02*
X58620000Y-97133000D01*
X58580000Y-84476000D02*
X58580000Y-97134000D01*
X58540000Y-84475000D02*
X58540000Y-97135000D01*
X58500000Y-84475000D02*
X58500000Y-97135000D01*
X58460000Y-84475000D02*
X58460000Y-97135000D01*
X64830000Y-90805000D02*
G75*
G03*
X64830000Y-90805000I-6370000J0D01*
G01*
%TO.C,C2 1uF*%
X64720199Y-98935000D02*
X64720199Y-99335000D01*
X64520199Y-99135000D02*
X64920199Y-99135000D01*
X68871000Y-99960000D02*
X68871000Y-100700000D01*
X68831000Y-99793000D02*
X68831000Y-100867000D01*
X68791000Y-99666000D02*
X68791000Y-100994000D01*
X68751000Y-99562000D02*
X68751000Y-101098000D01*
X68711000Y-99471000D02*
X68711000Y-101189000D01*
X68671000Y-99390000D02*
X68671000Y-101270000D01*
X68631000Y-99317000D02*
X68631000Y-101343000D01*
X68591000Y-99250000D02*
X68591000Y-101410000D01*
X68551000Y-99188000D02*
X68551000Y-101472000D01*
X68511000Y-99130000D02*
X68511000Y-101530000D01*
X68471000Y-99076000D02*
X68471000Y-101584000D01*
X68431000Y-99026000D02*
X68431000Y-101634000D01*
X68391000Y-98979000D02*
X68391000Y-101681000D01*
X68351000Y-101170000D02*
X68351000Y-101726000D01*
X68351000Y-98934000D02*
X68351000Y-99490000D01*
X68311000Y-101170000D02*
X68311000Y-101768000D01*
X68311000Y-98892000D02*
X68311000Y-99490000D01*
X68271000Y-101170000D02*
X68271000Y-101808000D01*
X68271000Y-98852000D02*
X68271000Y-99490000D01*
X68231000Y-101170000D02*
X68231000Y-101846000D01*
X68231000Y-98814000D02*
X68231000Y-99490000D01*
X68191000Y-101170000D02*
X68191000Y-101882000D01*
X68191000Y-98778000D02*
X68191000Y-99490000D01*
X68151000Y-101170000D02*
X68151000Y-101917000D01*
X68151000Y-98743000D02*
X68151000Y-99490000D01*
X68111000Y-101170000D02*
X68111000Y-101949000D01*
X68111000Y-98711000D02*
X68111000Y-99490000D01*
X68071000Y-101170000D02*
X68071000Y-101980000D01*
X68071000Y-98680000D02*
X68071000Y-99490000D01*
X68031000Y-101170000D02*
X68031000Y-102010000D01*
X68031000Y-98650000D02*
X68031000Y-99490000D01*
X67991000Y-101170000D02*
X67991000Y-102038000D01*
X67991000Y-98622000D02*
X67991000Y-99490000D01*
X67951000Y-101170000D02*
X67951000Y-102065000D01*
X67951000Y-98595000D02*
X67951000Y-99490000D01*
X67911000Y-101170000D02*
X67911000Y-102090000D01*
X67911000Y-98570000D02*
X67911000Y-99490000D01*
X67871000Y-101170000D02*
X67871000Y-102115000D01*
X67871000Y-98545000D02*
X67871000Y-99490000D01*
X67831000Y-101170000D02*
X67831000Y-102138000D01*
X67831000Y-98522000D02*
X67831000Y-99490000D01*
X67791000Y-101170000D02*
X67791000Y-102160000D01*
X67791000Y-98500000D02*
X67791000Y-99490000D01*
X67751000Y-101170000D02*
X67751000Y-102181000D01*
X67751000Y-98479000D02*
X67751000Y-99490000D01*
X67711000Y-101170000D02*
X67711000Y-102200000D01*
X67711000Y-98460000D02*
X67711000Y-99490000D01*
X67671000Y-101170000D02*
X67671000Y-102219000D01*
X67671000Y-98441000D02*
X67671000Y-99490000D01*
X67631000Y-101170000D02*
X67631000Y-102237000D01*
X67631000Y-98423000D02*
X67631000Y-99490000D01*
X67591000Y-101170000D02*
X67591000Y-102254000D01*
X67591000Y-98406000D02*
X67591000Y-99490000D01*
X67551000Y-101170000D02*
X67551000Y-102270000D01*
X67551000Y-98390000D02*
X67551000Y-99490000D01*
X67511000Y-101170000D02*
X67511000Y-102284000D01*
X67511000Y-98376000D02*
X67511000Y-99490000D01*
X67470000Y-101170000D02*
X67470000Y-102298000D01*
X67470000Y-98362000D02*
X67470000Y-99490000D01*
X67430000Y-101170000D02*
X67430000Y-102312000D01*
X67430000Y-98348000D02*
X67430000Y-99490000D01*
X67390000Y-101170000D02*
X67390000Y-102324000D01*
X67390000Y-98336000D02*
X67390000Y-99490000D01*
X67350000Y-101170000D02*
X67350000Y-102335000D01*
X67350000Y-98325000D02*
X67350000Y-99490000D01*
X67310000Y-101170000D02*
X67310000Y-102346000D01*
X67310000Y-98314000D02*
X67310000Y-99490000D01*
X67270000Y-101170000D02*
X67270000Y-102355000D01*
X67270000Y-98305000D02*
X67270000Y-99490000D01*
X67230000Y-101170000D02*
X67230000Y-102364000D01*
X67230000Y-98296000D02*
X67230000Y-99490000D01*
X67190000Y-101170000D02*
X67190000Y-102372000D01*
X67190000Y-98288000D02*
X67190000Y-99490000D01*
X67150000Y-101170000D02*
X67150000Y-102380000D01*
X67150000Y-98280000D02*
X67150000Y-99490000D01*
X67110000Y-101170000D02*
X67110000Y-102386000D01*
X67110000Y-98274000D02*
X67110000Y-99490000D01*
X67070000Y-101170000D02*
X67070000Y-102392000D01*
X67070000Y-98268000D02*
X67070000Y-99490000D01*
X67030000Y-101170000D02*
X67030000Y-102397000D01*
X67030000Y-98263000D02*
X67030000Y-99490000D01*
X66990000Y-101170000D02*
X66990000Y-102401000D01*
X66990000Y-98259000D02*
X66990000Y-99490000D01*
X66950000Y-101170000D02*
X66950000Y-102404000D01*
X66950000Y-98256000D02*
X66950000Y-99490000D01*
X66910000Y-101170000D02*
X66910000Y-102407000D01*
X66910000Y-98253000D02*
X66910000Y-99490000D01*
X66870000Y-98251000D02*
X66870000Y-99490000D01*
X66870000Y-101170000D02*
X66870000Y-102409000D01*
X66830000Y-98250000D02*
X66830000Y-99490000D01*
X66830000Y-101170000D02*
X66830000Y-102410000D01*
X66790000Y-98250000D02*
X66790000Y-99490000D01*
X66790000Y-101170000D02*
X66790000Y-102410000D01*
X68910000Y-100330000D02*
G75*
G03*
X68910000Y-100330000I-2120000J0D01*
G01*
%TO.C,GND*%
X36770000Y-83125000D02*
X38100000Y-83125000D01*
X36770000Y-84455000D02*
X36770000Y-83125000D01*
X36770000Y-85725000D02*
X39430000Y-85725000D01*
X39430000Y-85725000D02*
X39430000Y-98485000D01*
X36770000Y-85725000D02*
X36770000Y-98485000D01*
X36770000Y-98485000D02*
X39430000Y-98485000D01*
%TO.C,Power*%
X69445000Y-93105000D02*
X69445000Y-91365000D01*
X71185000Y-93105000D02*
X69445000Y-93105000D01*
X69685000Y-83665000D02*
X71685000Y-83665000D01*
X69685000Y-86465000D02*
X69685000Y-83665000D01*
X69685000Y-92865000D02*
X69685000Y-90065000D01*
X84285000Y-92865000D02*
X69685000Y-92865000D01*
X84285000Y-83665000D02*
X84285000Y-92865000D01*
X75285000Y-83665000D02*
X84285000Y-83665000D01*
%TO.C,Signal*%
X46930000Y-85725000D02*
X49590000Y-85725000D01*
X46930000Y-85725000D02*
X46930000Y-98485000D01*
X46930000Y-98485000D02*
X49590000Y-98485000D01*
X49590000Y-85725000D02*
X49590000Y-98485000D01*
X49590000Y-83125000D02*
X49590000Y-84455000D01*
X48260000Y-83125000D02*
X49590000Y-83125000D01*
%TO.C,J6*%
X38100000Y-109795000D02*
X39430000Y-109795000D01*
X39430000Y-109795000D02*
X39430000Y-111125000D01*
X39430000Y-112395000D02*
X39430000Y-170875000D01*
X36770000Y-170875000D02*
X39430000Y-170875000D01*
X36770000Y-112395000D02*
X36770000Y-170875000D01*
X36770000Y-112395000D02*
X39430000Y-112395000D01*
%TO.C,J7*%
X60900000Y-112395000D02*
X63560000Y-112395000D01*
X60900000Y-112395000D02*
X60900000Y-170875000D01*
X60900000Y-170875000D02*
X63560000Y-170875000D01*
X63560000Y-112395000D02*
X63560000Y-170875000D01*
X63560000Y-109795000D02*
X63560000Y-111125000D01*
X62230000Y-109795000D02*
X63560000Y-109795000D01*
%TO.C,GND*%
X41910000Y-83125000D02*
X43240000Y-83125000D01*
X43240000Y-83125000D02*
X43240000Y-84455000D01*
X43240000Y-85725000D02*
X43240000Y-98485000D01*
X40580000Y-98485000D02*
X43240000Y-98485000D01*
X40580000Y-85725000D02*
X40580000Y-98485000D01*
X40580000Y-85725000D02*
X43240000Y-85725000D01*
%TO.C,R1 2.2k*%
X68175000Y-115030000D02*
X67845000Y-115030000D01*
X67845000Y-115030000D02*
X67845000Y-108490000D01*
X67845000Y-108490000D02*
X68175000Y-108490000D01*
X70255000Y-115030000D02*
X70585000Y-115030000D01*
X70585000Y-115030000D02*
X70585000Y-108490000D01*
X70585000Y-108490000D02*
X70255000Y-108490000D01*
%TO.C,R2 470*%
X71985000Y-115030000D02*
X71655000Y-115030000D01*
X71655000Y-115030000D02*
X71655000Y-108490000D01*
X71655000Y-108490000D02*
X71985000Y-108490000D01*
X74065000Y-115030000D02*
X74395000Y-115030000D01*
X74395000Y-115030000D02*
X74395000Y-108490000D01*
X74395000Y-108490000D02*
X74065000Y-108490000D01*
%TO.C,R3 4.7k*%
X83280000Y-109955000D02*
X83280000Y-109625000D01*
X76740000Y-109955000D02*
X83280000Y-109955000D01*
X76740000Y-109625000D02*
X76740000Y-109955000D01*
X83280000Y-107215000D02*
X83280000Y-107545000D01*
X76740000Y-107215000D02*
X83280000Y-107215000D01*
X76740000Y-107545000D02*
X76740000Y-107215000D01*
%TO.C,R4 22k*%
X83280000Y-113765000D02*
X83280000Y-113435000D01*
X76740000Y-113765000D02*
X83280000Y-113765000D01*
X76740000Y-113435000D02*
X76740000Y-113765000D01*
X83280000Y-111025000D02*
X83280000Y-111355000D01*
X76740000Y-111025000D02*
X83280000Y-111025000D01*
X76740000Y-111355000D02*
X76740000Y-111025000D01*
%TO.C,R5 10k*%
X70255000Y-119285000D02*
X70585000Y-119285000D01*
X70585000Y-119285000D02*
X70585000Y-125825000D01*
X70585000Y-125825000D02*
X70255000Y-125825000D01*
X68175000Y-119285000D02*
X67845000Y-119285000D01*
X67845000Y-119285000D02*
X67845000Y-125825000D01*
X67845000Y-125825000D02*
X68175000Y-125825000D01*
%TO.C,R6 100*%
X71655000Y-125825000D02*
X71985000Y-125825000D01*
X71655000Y-119285000D02*
X71655000Y-125825000D01*
X71985000Y-119285000D02*
X71655000Y-119285000D01*
X74395000Y-125825000D02*
X74065000Y-125825000D01*
X74395000Y-119285000D02*
X74395000Y-125825000D01*
X74065000Y-119285000D02*
X74395000Y-119285000D01*
%TO.C,R7 2.2k*%
X76740000Y-127230000D02*
X76740000Y-126900000D01*
X76740000Y-126900000D02*
X83280000Y-126900000D01*
X83280000Y-126900000D02*
X83280000Y-127230000D01*
X76740000Y-129310000D02*
X76740000Y-129640000D01*
X76740000Y-129640000D02*
X83280000Y-129640000D01*
X83280000Y-129640000D02*
X83280000Y-129310000D01*
%TO.C,R8 10k*%
X83280000Y-132815000D02*
X83280000Y-132485000D01*
X76740000Y-132815000D02*
X83280000Y-132815000D01*
X76740000Y-132485000D02*
X76740000Y-132815000D01*
X83280000Y-130075000D02*
X83280000Y-130405000D01*
X76740000Y-130075000D02*
X83280000Y-130075000D01*
X76740000Y-130405000D02*
X76740000Y-130075000D01*
%TO.C,R9 10k*%
X83280000Y-135990000D02*
X83280000Y-135660000D01*
X76740000Y-135990000D02*
X83280000Y-135990000D01*
X76740000Y-135660000D02*
X76740000Y-135990000D01*
X83280000Y-133250000D02*
X83280000Y-133580000D01*
X76740000Y-133250000D02*
X83280000Y-133250000D01*
X76740000Y-133580000D02*
X76740000Y-133250000D01*
%TO.C,R10 10k*%
X70255000Y-130080000D02*
X70585000Y-130080000D01*
X70585000Y-130080000D02*
X70585000Y-136620000D01*
X70585000Y-136620000D02*
X70255000Y-136620000D01*
X68175000Y-130080000D02*
X67845000Y-130080000D01*
X67845000Y-130080000D02*
X67845000Y-136620000D01*
X67845000Y-136620000D02*
X68175000Y-136620000D01*
%TO.C,R12 10k*%
X76740000Y-152300000D02*
X76740000Y-152630000D01*
X83280000Y-152300000D02*
X76740000Y-152300000D01*
X83280000Y-152630000D02*
X83280000Y-152300000D01*
X76740000Y-155040000D02*
X76740000Y-154710000D01*
X83280000Y-155040000D02*
X76740000Y-155040000D01*
X83280000Y-154710000D02*
X83280000Y-155040000D01*
%TO.C,R13 10k*%
X76740000Y-155805000D02*
X76740000Y-155475000D01*
X76740000Y-155475000D02*
X83280000Y-155475000D01*
X83280000Y-155475000D02*
X83280000Y-155805000D01*
X76740000Y-157885000D02*
X76740000Y-158215000D01*
X76740000Y-158215000D02*
X83280000Y-158215000D01*
X83280000Y-158215000D02*
X83280000Y-157885000D01*
%TO.C,R14 4.7k*%
X70585000Y-161195000D02*
X70255000Y-161195000D01*
X70585000Y-167735000D02*
X70585000Y-161195000D01*
X70255000Y-167735000D02*
X70585000Y-167735000D01*
X67845000Y-161195000D02*
X68175000Y-161195000D01*
X67845000Y-167735000D02*
X67845000Y-161195000D01*
X68175000Y-167735000D02*
X67845000Y-167735000D01*
%TO.C,R15 10k*%
X70585000Y-151035000D02*
X70255000Y-151035000D01*
X70585000Y-157575000D02*
X70585000Y-151035000D01*
X70255000Y-157575000D02*
X70585000Y-157575000D01*
X67845000Y-151035000D02*
X68175000Y-151035000D01*
X67845000Y-157575000D02*
X67845000Y-151035000D01*
X68175000Y-157575000D02*
X67845000Y-157575000D01*
%TO.C,R16 10k*%
X70585000Y-140875000D02*
X70255000Y-140875000D01*
X70585000Y-147415000D02*
X70585000Y-140875000D01*
X70255000Y-147415000D02*
X70585000Y-147415000D01*
X67845000Y-140875000D02*
X68175000Y-140875000D01*
X67845000Y-147415000D02*
X67845000Y-140875000D01*
X68175000Y-147415000D02*
X67845000Y-147415000D01*
%TO.C,R17 4.7k*%
X74065000Y-140875000D02*
X74395000Y-140875000D01*
X74395000Y-140875000D02*
X74395000Y-147415000D01*
X74395000Y-147415000D02*
X74065000Y-147415000D01*
X71985000Y-140875000D02*
X71655000Y-140875000D01*
X71655000Y-140875000D02*
X71655000Y-147415000D01*
X71655000Y-147415000D02*
X71985000Y-147415000D01*
%TO.C,R18 2.2k*%
X74065000Y-130080000D02*
X74395000Y-130080000D01*
X74395000Y-130080000D02*
X74395000Y-136620000D01*
X74395000Y-136620000D02*
X74065000Y-136620000D01*
X71985000Y-130080000D02*
X71655000Y-130080000D01*
X71655000Y-130080000D02*
X71655000Y-136620000D01*
X71655000Y-136620000D02*
X71985000Y-136620000D01*
%TO.C,LM358*%
X81010000Y-115510000D02*
G75*
G02*
X79010000Y-115510000I-1000000J0D01*
G01*
X79010000Y-115510000D02*
X77360000Y-115510000D01*
X77360000Y-115510000D02*
X77360000Y-125790000D01*
X77360000Y-125790000D02*
X82660000Y-125790000D01*
X82660000Y-125790000D02*
X82660000Y-115510000D01*
X82660000Y-115510000D02*
X81010000Y-115510000D01*
X82660000Y-137100000D02*
X81010000Y-137100000D01*
X82660000Y-147380000D02*
X82660000Y-137100000D01*
X77360000Y-147380000D02*
X82660000Y-147380000D01*
X77360000Y-137100000D02*
X77360000Y-147380000D01*
X79010000Y-137100000D02*
X77360000Y-137100000D01*
X81010000Y-137100000D02*
G75*
G02*
X79010000Y-137100000I-1000000J0D01*
G01*
X82660000Y-160595000D02*
X81010000Y-160595000D01*
X82660000Y-170875000D02*
X82660000Y-160595000D01*
X77360000Y-170875000D02*
X82660000Y-170875000D01*
X77360000Y-160595000D02*
X77360000Y-170875000D01*
X79010000Y-160595000D02*
X77360000Y-160595000D01*
X81010000Y-160595000D02*
G75*
G02*
X79010000Y-160595000I-1000000J0D01*
G01*
%TO.C,TLE2426*%
X81010000Y-95825000D02*
G75*
G02*
X79010000Y-95825000I-1000000J0D01*
G01*
X79010000Y-95825000D02*
X77360000Y-95825000D01*
X77360000Y-95825000D02*
X77360000Y-106105000D01*
X77360000Y-106105000D02*
X82660000Y-106105000D01*
X82660000Y-106105000D02*
X82660000Y-95825000D01*
X82660000Y-95825000D02*
X81010000Y-95825000D01*
D10*
%TO.C,U5*%
X53975000Y-126365000D02*
X51435000Y-126365000D01*
X51435000Y-126365000D02*
X51435000Y-128905000D01*
X51435000Y-128905000D02*
X53975000Y-128905000D01*
X53975000Y-128905000D02*
X53975000Y-126365000D01*
X45085000Y-133985000D02*
X45085000Y-130175000D01*
X45085000Y-130175000D02*
X47625000Y-130175000D01*
X47625000Y-130175000D02*
X47625000Y-133985000D01*
X47625000Y-133985000D02*
X45085000Y-133985000D01*
X43815000Y-147955000D02*
X56515000Y-147955000D01*
X56515000Y-135255000D02*
X43815000Y-135255000D01*
X43815000Y-135255000D02*
X43815000Y-147955000D01*
X56515000Y-135255000D02*
X56515000Y-147955000D01*
X45085000Y-169545000D02*
X45085000Y-170815000D01*
X46355000Y-169545000D02*
X46355000Y-170815000D01*
X47625000Y-169545000D02*
X47625000Y-170815000D01*
X48895000Y-169545000D02*
X48895000Y-170815000D01*
X50165000Y-169545000D02*
X50165000Y-170815000D01*
X51435000Y-169545000D02*
X51435000Y-170815000D01*
X52705000Y-169545000D02*
X52705000Y-170815000D01*
X53975000Y-169545000D02*
X53975000Y-170815000D01*
X55245000Y-169545000D02*
X55245000Y-170815000D01*
X43815000Y-170815000D02*
X45085000Y-169545000D01*
X45085000Y-169545000D02*
X55245000Y-169545000D01*
X55245000Y-169545000D02*
X56515000Y-170815000D01*
X56515000Y-170815000D02*
X56515000Y-158115000D01*
X56515000Y-158115000D02*
X43815000Y-158115000D01*
X43815000Y-158115000D02*
X43815000Y-170815000D01*
X59055000Y-170815000D02*
X59055000Y-109855000D01*
X41275000Y-109855000D02*
X41275000Y-170815000D01*
X46355000Y-109855000D02*
X46355000Y-108585000D01*
X46355000Y-108585000D02*
X53975000Y-108585000D01*
X53975000Y-108585000D02*
X53975000Y-109855000D01*
X46355000Y-114935000D02*
X53975000Y-114935000D01*
X53975000Y-114935000D02*
X53975000Y-109855000D01*
X46355000Y-114935000D02*
X46355000Y-109855000D01*
X52705000Y-154305000D02*
X47625000Y-154305000D01*
X47625000Y-154305000D02*
X47625000Y-151765000D01*
X47625000Y-151765000D02*
X52705000Y-151765000D01*
X52705000Y-151765000D02*
X52705000Y-154305000D01*
X59055000Y-170815000D02*
X41275000Y-170815000D01*
X41275000Y-109855000D02*
X59055000Y-109855000D01*
D12*
G36*
X55118000Y-141351000D02*
G01*
X54864000Y-141605000D01*
X54610000Y-141224000D01*
X54864000Y-140970000D01*
X55118000Y-141351000D01*
G37*
X55118000Y-141351000D02*
X54864000Y-141605000D01*
X54610000Y-141224000D01*
X54864000Y-140970000D01*
X55118000Y-141351000D01*
G36*
X53594000Y-141097000D02*
G01*
X53340000Y-141351000D01*
X53086000Y-140970000D01*
X53340000Y-140716000D01*
X53594000Y-141097000D01*
G37*
X53594000Y-141097000D02*
X53340000Y-141351000D01*
X53086000Y-140970000D01*
X53340000Y-140716000D01*
X53594000Y-141097000D01*
G36*
X52832000Y-140970000D02*
G01*
X52578000Y-141224000D01*
X52324000Y-140843000D01*
X52578000Y-140589000D01*
X52832000Y-140970000D01*
G37*
X52832000Y-140970000D02*
X52578000Y-141224000D01*
X52324000Y-140843000D01*
X52578000Y-140589000D01*
X52832000Y-140970000D01*
G36*
X54356000Y-142113000D02*
G01*
X54102000Y-142367000D01*
X53848000Y-141986000D01*
X54102000Y-141732000D01*
X54356000Y-142113000D01*
G37*
X54356000Y-142113000D02*
X54102000Y-142367000D01*
X53848000Y-141986000D01*
X54102000Y-141732000D01*
X54356000Y-142113000D01*
G36*
X53213000Y-141478000D02*
G01*
X52959000Y-141732000D01*
X52705000Y-141351000D01*
X52959000Y-141097000D01*
X53213000Y-141478000D01*
G37*
X53213000Y-141478000D02*
X52959000Y-141732000D01*
X52705000Y-141351000D01*
X52959000Y-141097000D01*
X53213000Y-141478000D01*
G36*
X53594000Y-141986000D02*
G01*
X53340000Y-142240000D01*
X53086000Y-141859000D01*
X53340000Y-141605000D01*
X53594000Y-141986000D01*
G37*
X53594000Y-141986000D02*
X53340000Y-142240000D01*
X53086000Y-141859000D01*
X53340000Y-141605000D01*
X53594000Y-141986000D01*
G36*
X54737000Y-141732000D02*
G01*
X54483000Y-141986000D01*
X54229000Y-141605000D01*
X54483000Y-141351000D01*
X54737000Y-141732000D01*
G37*
X54737000Y-141732000D02*
X54483000Y-141986000D01*
X54229000Y-141605000D01*
X54483000Y-141351000D01*
X54737000Y-141732000D01*
G36*
X53975000Y-141605000D02*
G01*
X53721000Y-141859000D01*
X53467000Y-141478000D01*
X53721000Y-141224000D01*
X53975000Y-141605000D01*
G37*
X53975000Y-141605000D02*
X53721000Y-141859000D01*
X53467000Y-141478000D01*
X53721000Y-141224000D01*
X53975000Y-141605000D01*
%TO.C,R11 10k*%
D10*
X77629047Y-149042380D02*
X77295714Y-148566190D01*
X77057619Y-149042380D02*
X77057619Y-148042380D01*
X77438571Y-148042380D01*
X77533809Y-148090000D01*
X77581428Y-148137619D01*
X77629047Y-148232857D01*
X77629047Y-148375714D01*
X77581428Y-148470952D01*
X77533809Y-148518571D01*
X77438571Y-148566190D01*
X77057619Y-148566190D01*
X78581428Y-149042380D02*
X78010000Y-149042380D01*
X78295714Y-149042380D02*
X78295714Y-148042380D01*
X78200476Y-148185238D01*
X78105238Y-148280476D01*
X78010000Y-148328095D01*
X79533809Y-149042380D02*
X78962380Y-149042380D01*
X79248095Y-149042380D02*
X79248095Y-148042380D01*
X79152857Y-148185238D01*
X79057619Y-148280476D01*
X78962380Y-148328095D01*
X81248095Y-149042380D02*
X80676666Y-149042380D01*
X80962380Y-149042380D02*
X80962380Y-148042380D01*
X80867142Y-148185238D01*
X80771904Y-148280476D01*
X80676666Y-148328095D01*
X81867142Y-148042380D02*
X81962380Y-148042380D01*
X82057619Y-148090000D01*
X82105238Y-148137619D01*
X82152857Y-148232857D01*
X82200476Y-148423333D01*
X82200476Y-148661428D01*
X82152857Y-148851904D01*
X82105238Y-148947142D01*
X82057619Y-148994761D01*
X81962380Y-149042380D01*
X81867142Y-149042380D01*
X81771904Y-148994761D01*
X81724285Y-148947142D01*
X81676666Y-148851904D01*
X81629047Y-148661428D01*
X81629047Y-148423333D01*
X81676666Y-148232857D01*
X81724285Y-148137619D01*
X81771904Y-148090000D01*
X81867142Y-148042380D01*
X82629047Y-149042380D02*
X82629047Y-148042380D01*
X82724285Y-148661428D02*
X83010000Y-149042380D01*
X83010000Y-148375714D02*
X82629047Y-148756666D01*
%TO.C,C1 200uF*%
X55602857Y-83662142D02*
X55555238Y-83709761D01*
X55412380Y-83757380D01*
X55317142Y-83757380D01*
X55174285Y-83709761D01*
X55079047Y-83614523D01*
X55031428Y-83519285D01*
X54983809Y-83328809D01*
X54983809Y-83185952D01*
X55031428Y-82995476D01*
X55079047Y-82900238D01*
X55174285Y-82805000D01*
X55317142Y-82757380D01*
X55412380Y-82757380D01*
X55555238Y-82805000D01*
X55602857Y-82852619D01*
X56555238Y-83757380D02*
X55983809Y-83757380D01*
X56269523Y-83757380D02*
X56269523Y-82757380D01*
X56174285Y-82900238D01*
X56079047Y-82995476D01*
X55983809Y-83043095D01*
X57698095Y-82852619D02*
X57745714Y-82805000D01*
X57840952Y-82757380D01*
X58079047Y-82757380D01*
X58174285Y-82805000D01*
X58221904Y-82852619D01*
X58269523Y-82947857D01*
X58269523Y-83043095D01*
X58221904Y-83185952D01*
X57650476Y-83757380D01*
X58269523Y-83757380D01*
X58888571Y-82757380D02*
X58983809Y-82757380D01*
X59079047Y-82805000D01*
X59126666Y-82852619D01*
X59174285Y-82947857D01*
X59221904Y-83138333D01*
X59221904Y-83376428D01*
X59174285Y-83566904D01*
X59126666Y-83662142D01*
X59079047Y-83709761D01*
X58983809Y-83757380D01*
X58888571Y-83757380D01*
X58793333Y-83709761D01*
X58745714Y-83662142D01*
X58698095Y-83566904D01*
X58650476Y-83376428D01*
X58650476Y-83138333D01*
X58698095Y-82947857D01*
X58745714Y-82852619D01*
X58793333Y-82805000D01*
X58888571Y-82757380D01*
X59840952Y-82757380D02*
X59936190Y-82757380D01*
X60031428Y-82805000D01*
X60079047Y-82852619D01*
X60126666Y-82947857D01*
X60174285Y-83138333D01*
X60174285Y-83376428D01*
X60126666Y-83566904D01*
X60079047Y-83662142D01*
X60031428Y-83709761D01*
X59936190Y-83757380D01*
X59840952Y-83757380D01*
X59745714Y-83709761D01*
X59698095Y-83662142D01*
X59650476Y-83566904D01*
X59602857Y-83376428D01*
X59602857Y-83138333D01*
X59650476Y-82947857D01*
X59698095Y-82852619D01*
X59745714Y-82805000D01*
X59840952Y-82757380D01*
X61031428Y-83090714D02*
X61031428Y-83757380D01*
X60602857Y-83090714D02*
X60602857Y-83614523D01*
X60650476Y-83709761D01*
X60745714Y-83757380D01*
X60888571Y-83757380D01*
X60983809Y-83709761D01*
X61031428Y-83662142D01*
X61840952Y-83233571D02*
X61507619Y-83233571D01*
X61507619Y-83757380D02*
X61507619Y-82757380D01*
X61983809Y-82757380D01*
%TO.C,C2 1uF*%
X64885238Y-97437142D02*
X64837619Y-97484761D01*
X64694761Y-97532380D01*
X64599523Y-97532380D01*
X64456666Y-97484761D01*
X64361428Y-97389523D01*
X64313809Y-97294285D01*
X64266190Y-97103809D01*
X64266190Y-96960952D01*
X64313809Y-96770476D01*
X64361428Y-96675238D01*
X64456666Y-96580000D01*
X64599523Y-96532380D01*
X64694761Y-96532380D01*
X64837619Y-96580000D01*
X64885238Y-96627619D01*
X65266190Y-96627619D02*
X65313809Y-96580000D01*
X65409047Y-96532380D01*
X65647142Y-96532380D01*
X65742380Y-96580000D01*
X65790000Y-96627619D01*
X65837619Y-96722857D01*
X65837619Y-96818095D01*
X65790000Y-96960952D01*
X65218571Y-97532380D01*
X65837619Y-97532380D01*
X67551904Y-97532380D02*
X66980476Y-97532380D01*
X67266190Y-97532380D02*
X67266190Y-96532380D01*
X67170952Y-96675238D01*
X67075714Y-96770476D01*
X66980476Y-96818095D01*
X68409047Y-96865714D02*
X68409047Y-97532380D01*
X67980476Y-96865714D02*
X67980476Y-97389523D01*
X68028095Y-97484761D01*
X68123333Y-97532380D01*
X68266190Y-97532380D01*
X68361428Y-97484761D01*
X68409047Y-97437142D01*
X69218571Y-97008571D02*
X68885238Y-97008571D01*
X68885238Y-97532380D02*
X68885238Y-96532380D01*
X69361428Y-96532380D01*
%TO.C,GND*%
X37338095Y-81415000D02*
X37242857Y-81367380D01*
X37100000Y-81367380D01*
X36957142Y-81415000D01*
X36861904Y-81510238D01*
X36814285Y-81605476D01*
X36766666Y-81795952D01*
X36766666Y-81938809D01*
X36814285Y-82129285D01*
X36861904Y-82224523D01*
X36957142Y-82319761D01*
X37100000Y-82367380D01*
X37195238Y-82367380D01*
X37338095Y-82319761D01*
X37385714Y-82272142D01*
X37385714Y-81938809D01*
X37195238Y-81938809D01*
X37814285Y-82367380D02*
X37814285Y-81367380D01*
X38385714Y-82367380D01*
X38385714Y-81367380D01*
X38861904Y-82367380D02*
X38861904Y-81367380D01*
X39100000Y-81367380D01*
X39242857Y-81415000D01*
X39338095Y-81510238D01*
X39385714Y-81605476D01*
X39433333Y-81795952D01*
X39433333Y-81938809D01*
X39385714Y-82129285D01*
X39338095Y-82224523D01*
X39242857Y-82319761D01*
X39100000Y-82367380D01*
X38861904Y-82367380D01*
%TO.C,Power*%
X76958809Y-85542380D02*
X76958809Y-84542380D01*
X77339761Y-84542380D01*
X77435000Y-84590000D01*
X77482619Y-84637619D01*
X77530238Y-84732857D01*
X77530238Y-84875714D01*
X77482619Y-84970952D01*
X77435000Y-85018571D01*
X77339761Y-85066190D01*
X76958809Y-85066190D01*
X78101666Y-85542380D02*
X78006428Y-85494761D01*
X77958809Y-85447142D01*
X77911190Y-85351904D01*
X77911190Y-85066190D01*
X77958809Y-84970952D01*
X78006428Y-84923333D01*
X78101666Y-84875714D01*
X78244523Y-84875714D01*
X78339761Y-84923333D01*
X78387380Y-84970952D01*
X78435000Y-85066190D01*
X78435000Y-85351904D01*
X78387380Y-85447142D01*
X78339761Y-85494761D01*
X78244523Y-85542380D01*
X78101666Y-85542380D01*
X78768333Y-84875714D02*
X78958809Y-85542380D01*
X79149285Y-85066190D01*
X79339761Y-85542380D01*
X79530238Y-84875714D01*
X80292142Y-85494761D02*
X80196904Y-85542380D01*
X80006428Y-85542380D01*
X79911190Y-85494761D01*
X79863571Y-85399523D01*
X79863571Y-85018571D01*
X79911190Y-84923333D01*
X80006428Y-84875714D01*
X80196904Y-84875714D01*
X80292142Y-84923333D01*
X80339761Y-85018571D01*
X80339761Y-85113809D01*
X79863571Y-85209047D01*
X80768333Y-85542380D02*
X80768333Y-84875714D01*
X80768333Y-85066190D02*
X80815952Y-84970952D01*
X80863571Y-84923333D01*
X80958809Y-84875714D01*
X81054047Y-84875714D01*
%TO.C,Signal*%
X46117142Y-82089761D02*
X46260000Y-82137380D01*
X46498095Y-82137380D01*
X46593333Y-82089761D01*
X46640952Y-82042142D01*
X46688571Y-81946904D01*
X46688571Y-81851666D01*
X46640952Y-81756428D01*
X46593333Y-81708809D01*
X46498095Y-81661190D01*
X46307619Y-81613571D01*
X46212380Y-81565952D01*
X46164761Y-81518333D01*
X46117142Y-81423095D01*
X46117142Y-81327857D01*
X46164761Y-81232619D01*
X46212380Y-81185000D01*
X46307619Y-81137380D01*
X46545714Y-81137380D01*
X46688571Y-81185000D01*
X47117142Y-82137380D02*
X47117142Y-81470714D01*
X47117142Y-81137380D02*
X47069523Y-81185000D01*
X47117142Y-81232619D01*
X47164761Y-81185000D01*
X47117142Y-81137380D01*
X47117142Y-81232619D01*
X48021904Y-81470714D02*
X48021904Y-82280238D01*
X47974285Y-82375476D01*
X47926666Y-82423095D01*
X47831428Y-82470714D01*
X47688571Y-82470714D01*
X47593333Y-82423095D01*
X48021904Y-82089761D02*
X47926666Y-82137380D01*
X47736190Y-82137380D01*
X47640952Y-82089761D01*
X47593333Y-82042142D01*
X47545714Y-81946904D01*
X47545714Y-81661190D01*
X47593333Y-81565952D01*
X47640952Y-81518333D01*
X47736190Y-81470714D01*
X47926666Y-81470714D01*
X48021904Y-81518333D01*
X48498095Y-81470714D02*
X48498095Y-82137380D01*
X48498095Y-81565952D02*
X48545714Y-81518333D01*
X48640952Y-81470714D01*
X48783809Y-81470714D01*
X48879047Y-81518333D01*
X48926666Y-81613571D01*
X48926666Y-82137380D01*
X49831428Y-82137380D02*
X49831428Y-81613571D01*
X49783809Y-81518333D01*
X49688571Y-81470714D01*
X49498095Y-81470714D01*
X49402857Y-81518333D01*
X49831428Y-82089761D02*
X49736190Y-82137380D01*
X49498095Y-82137380D01*
X49402857Y-82089761D01*
X49355238Y-81994523D01*
X49355238Y-81899285D01*
X49402857Y-81804047D01*
X49498095Y-81756428D01*
X49736190Y-81756428D01*
X49831428Y-81708809D01*
X50450476Y-82137380D02*
X50355238Y-82089761D01*
X50307619Y-81994523D01*
X50307619Y-81137380D01*
%TO.C,J6*%
X37766666Y-107807380D02*
X37766666Y-108521666D01*
X37719047Y-108664523D01*
X37623809Y-108759761D01*
X37480952Y-108807380D01*
X37385714Y-108807380D01*
X38671428Y-107807380D02*
X38480952Y-107807380D01*
X38385714Y-107855000D01*
X38338095Y-107902619D01*
X38242857Y-108045476D01*
X38195238Y-108235952D01*
X38195238Y-108616904D01*
X38242857Y-108712142D01*
X38290476Y-108759761D01*
X38385714Y-108807380D01*
X38576190Y-108807380D01*
X38671428Y-108759761D01*
X38719047Y-108712142D01*
X38766666Y-108616904D01*
X38766666Y-108378809D01*
X38719047Y-108283571D01*
X38671428Y-108235952D01*
X38576190Y-108188333D01*
X38385714Y-108188333D01*
X38290476Y-108235952D01*
X38242857Y-108283571D01*
X38195238Y-108378809D01*
%TO.C,J7*%
X61896666Y-107807380D02*
X61896666Y-108521666D01*
X61849047Y-108664523D01*
X61753809Y-108759761D01*
X61610952Y-108807380D01*
X61515714Y-108807380D01*
X62277619Y-107807380D02*
X62944285Y-107807380D01*
X62515714Y-108807380D01*
%TO.C,GND*%
X41148095Y-81415000D02*
X41052857Y-81367380D01*
X40910000Y-81367380D01*
X40767142Y-81415000D01*
X40671904Y-81510238D01*
X40624285Y-81605476D01*
X40576666Y-81795952D01*
X40576666Y-81938809D01*
X40624285Y-82129285D01*
X40671904Y-82224523D01*
X40767142Y-82319761D01*
X40910000Y-82367380D01*
X41005238Y-82367380D01*
X41148095Y-82319761D01*
X41195714Y-82272142D01*
X41195714Y-81938809D01*
X41005238Y-81938809D01*
X41624285Y-82367380D02*
X41624285Y-81367380D01*
X42195714Y-82367380D01*
X42195714Y-81367380D01*
X42671904Y-82367380D02*
X42671904Y-81367380D01*
X42910000Y-81367380D01*
X43052857Y-81415000D01*
X43148095Y-81510238D01*
X43195714Y-81605476D01*
X43243333Y-81795952D01*
X43243333Y-81938809D01*
X43195714Y-82129285D01*
X43148095Y-82224523D01*
X43052857Y-82319761D01*
X42910000Y-82367380D01*
X42671904Y-82367380D01*
%TO.C,R1 2.2k*%
X67297380Y-113902857D02*
X66821190Y-114236190D01*
X67297380Y-114474285D02*
X66297380Y-114474285D01*
X66297380Y-114093333D01*
X66345000Y-113998095D01*
X66392619Y-113950476D01*
X66487857Y-113902857D01*
X66630714Y-113902857D01*
X66725952Y-113950476D01*
X66773571Y-113998095D01*
X66821190Y-114093333D01*
X66821190Y-114474285D01*
X67297380Y-112950476D02*
X67297380Y-113521904D01*
X67297380Y-113236190D02*
X66297380Y-113236190D01*
X66440238Y-113331428D01*
X66535476Y-113426666D01*
X66583095Y-113521904D01*
X66392619Y-111807619D02*
X66345000Y-111760000D01*
X66297380Y-111664761D01*
X66297380Y-111426666D01*
X66345000Y-111331428D01*
X66392619Y-111283809D01*
X66487857Y-111236190D01*
X66583095Y-111236190D01*
X66725952Y-111283809D01*
X67297380Y-111855238D01*
X67297380Y-111236190D01*
X67202142Y-110807619D02*
X67249761Y-110760000D01*
X67297380Y-110807619D01*
X67249761Y-110855238D01*
X67202142Y-110807619D01*
X67297380Y-110807619D01*
X66392619Y-110379047D02*
X66345000Y-110331428D01*
X66297380Y-110236190D01*
X66297380Y-109998095D01*
X66345000Y-109902857D01*
X66392619Y-109855238D01*
X66487857Y-109807619D01*
X66583095Y-109807619D01*
X66725952Y-109855238D01*
X67297380Y-110426666D01*
X67297380Y-109807619D01*
X67297380Y-109379047D02*
X66297380Y-109379047D01*
X66916428Y-109283809D02*
X67297380Y-108998095D01*
X66630714Y-108998095D02*
X67011666Y-109379047D01*
%TO.C,R2 470*%
X71107380Y-113736190D02*
X70631190Y-114069523D01*
X71107380Y-114307619D02*
X70107380Y-114307619D01*
X70107380Y-113926666D01*
X70155000Y-113831428D01*
X70202619Y-113783809D01*
X70297857Y-113736190D01*
X70440714Y-113736190D01*
X70535952Y-113783809D01*
X70583571Y-113831428D01*
X70631190Y-113926666D01*
X70631190Y-114307619D01*
X70202619Y-113355238D02*
X70155000Y-113307619D01*
X70107380Y-113212380D01*
X70107380Y-112974285D01*
X70155000Y-112879047D01*
X70202619Y-112831428D01*
X70297857Y-112783809D01*
X70393095Y-112783809D01*
X70535952Y-112831428D01*
X71107380Y-113402857D01*
X71107380Y-112783809D01*
X70440714Y-111164761D02*
X71107380Y-111164761D01*
X70059761Y-111402857D02*
X70774047Y-111640952D01*
X70774047Y-111021904D01*
X70107380Y-110736190D02*
X70107380Y-110069523D01*
X71107380Y-110498095D01*
X70107380Y-109498095D02*
X70107380Y-109402857D01*
X70155000Y-109307619D01*
X70202619Y-109260000D01*
X70297857Y-109212380D01*
X70488333Y-109164761D01*
X70726428Y-109164761D01*
X70916904Y-109212380D01*
X71012142Y-109260000D01*
X71059761Y-109307619D01*
X71107380Y-109402857D01*
X71107380Y-109498095D01*
X71059761Y-109593333D01*
X71012142Y-109640952D01*
X70916904Y-109688571D01*
X70726428Y-109736190D01*
X70488333Y-109736190D01*
X70297857Y-109688571D01*
X70202619Y-109640952D01*
X70155000Y-109593333D01*
X70107380Y-109498095D01*
%TO.C,R3 4.7k*%
X77867142Y-106667380D02*
X77533809Y-106191190D01*
X77295714Y-106667380D02*
X77295714Y-105667380D01*
X77676666Y-105667380D01*
X77771904Y-105715000D01*
X77819523Y-105762619D01*
X77867142Y-105857857D01*
X77867142Y-106000714D01*
X77819523Y-106095952D01*
X77771904Y-106143571D01*
X77676666Y-106191190D01*
X77295714Y-106191190D01*
X78200476Y-105667380D02*
X78819523Y-105667380D01*
X78486190Y-106048333D01*
X78629047Y-106048333D01*
X78724285Y-106095952D01*
X78771904Y-106143571D01*
X78819523Y-106238809D01*
X78819523Y-106476904D01*
X78771904Y-106572142D01*
X78724285Y-106619761D01*
X78629047Y-106667380D01*
X78343333Y-106667380D01*
X78248095Y-106619761D01*
X78200476Y-106572142D01*
X80438571Y-106000714D02*
X80438571Y-106667380D01*
X80200476Y-105619761D02*
X79962380Y-106334047D01*
X80581428Y-106334047D01*
X80962380Y-106572142D02*
X81010000Y-106619761D01*
X80962380Y-106667380D01*
X80914761Y-106619761D01*
X80962380Y-106572142D01*
X80962380Y-106667380D01*
X81343333Y-105667380D02*
X82010000Y-105667380D01*
X81581428Y-106667380D01*
X82390952Y-106667380D02*
X82390952Y-105667380D01*
X82486190Y-106286428D02*
X82771904Y-106667380D01*
X82771904Y-106000714D02*
X82390952Y-106381666D01*
%TO.C,R4 22k*%
X78105238Y-110477380D02*
X77771904Y-110001190D01*
X77533809Y-110477380D02*
X77533809Y-109477380D01*
X77914761Y-109477380D01*
X78010000Y-109525000D01*
X78057619Y-109572619D01*
X78105238Y-109667857D01*
X78105238Y-109810714D01*
X78057619Y-109905952D01*
X78010000Y-109953571D01*
X77914761Y-110001190D01*
X77533809Y-110001190D01*
X78962380Y-109810714D02*
X78962380Y-110477380D01*
X78724285Y-109429761D02*
X78486190Y-110144047D01*
X79105238Y-110144047D01*
X80200476Y-109572619D02*
X80248095Y-109525000D01*
X80343333Y-109477380D01*
X80581428Y-109477380D01*
X80676666Y-109525000D01*
X80724285Y-109572619D01*
X80771904Y-109667857D01*
X80771904Y-109763095D01*
X80724285Y-109905952D01*
X80152857Y-110477380D01*
X80771904Y-110477380D01*
X81152857Y-109572619D02*
X81200476Y-109525000D01*
X81295714Y-109477380D01*
X81533809Y-109477380D01*
X81629047Y-109525000D01*
X81676666Y-109572619D01*
X81724285Y-109667857D01*
X81724285Y-109763095D01*
X81676666Y-109905952D01*
X81105238Y-110477380D01*
X81724285Y-110477380D01*
X82152857Y-110477380D02*
X82152857Y-109477380D01*
X82248095Y-110096428D02*
X82533809Y-110477380D01*
X82533809Y-109810714D02*
X82152857Y-110191666D01*
%TO.C,R5 10k*%
X67127380Y-124459761D02*
X66651190Y-124793095D01*
X67127380Y-125031190D02*
X66127380Y-125031190D01*
X66127380Y-124650238D01*
X66175000Y-124555000D01*
X66222619Y-124507380D01*
X66317857Y-124459761D01*
X66460714Y-124459761D01*
X66555952Y-124507380D01*
X66603571Y-124555000D01*
X66651190Y-124650238D01*
X66651190Y-125031190D01*
X66127380Y-123555000D02*
X66127380Y-124031190D01*
X66603571Y-124078809D01*
X66555952Y-124031190D01*
X66508333Y-123935952D01*
X66508333Y-123697857D01*
X66555952Y-123602619D01*
X66603571Y-123555000D01*
X66698809Y-123507380D01*
X66936904Y-123507380D01*
X67032142Y-123555000D01*
X67079761Y-123602619D01*
X67127380Y-123697857D01*
X67127380Y-123935952D01*
X67079761Y-124031190D01*
X67032142Y-124078809D01*
X67127380Y-121793095D02*
X67127380Y-122364523D01*
X67127380Y-122078809D02*
X66127380Y-122078809D01*
X66270238Y-122174047D01*
X66365476Y-122269285D01*
X66413095Y-122364523D01*
X66127380Y-121174047D02*
X66127380Y-121078809D01*
X66175000Y-120983571D01*
X66222619Y-120935952D01*
X66317857Y-120888333D01*
X66508333Y-120840714D01*
X66746428Y-120840714D01*
X66936904Y-120888333D01*
X67032142Y-120935952D01*
X67079761Y-120983571D01*
X67127380Y-121078809D01*
X67127380Y-121174047D01*
X67079761Y-121269285D01*
X67032142Y-121316904D01*
X66936904Y-121364523D01*
X66746428Y-121412142D01*
X66508333Y-121412142D01*
X66317857Y-121364523D01*
X66222619Y-121316904D01*
X66175000Y-121269285D01*
X66127380Y-121174047D01*
X67127380Y-120412142D02*
X66127380Y-120412142D01*
X66746428Y-120316904D02*
X67127380Y-120031190D01*
X66460714Y-120031190D02*
X66841666Y-120412142D01*
%TO.C,R6 100*%
X70937380Y-124531190D02*
X70461190Y-124864523D01*
X70937380Y-125102619D02*
X69937380Y-125102619D01*
X69937380Y-124721666D01*
X69985000Y-124626428D01*
X70032619Y-124578809D01*
X70127857Y-124531190D01*
X70270714Y-124531190D01*
X70365952Y-124578809D01*
X70413571Y-124626428D01*
X70461190Y-124721666D01*
X70461190Y-125102619D01*
X69937380Y-123674047D02*
X69937380Y-123864523D01*
X69985000Y-123959761D01*
X70032619Y-124007380D01*
X70175476Y-124102619D01*
X70365952Y-124150238D01*
X70746904Y-124150238D01*
X70842142Y-124102619D01*
X70889761Y-124055000D01*
X70937380Y-123959761D01*
X70937380Y-123769285D01*
X70889761Y-123674047D01*
X70842142Y-123626428D01*
X70746904Y-123578809D01*
X70508809Y-123578809D01*
X70413571Y-123626428D01*
X70365952Y-123674047D01*
X70318333Y-123769285D01*
X70318333Y-123959761D01*
X70365952Y-124055000D01*
X70413571Y-124102619D01*
X70508809Y-124150238D01*
X70937380Y-121864523D02*
X70937380Y-122435952D01*
X70937380Y-122150238D02*
X69937380Y-122150238D01*
X70080238Y-122245476D01*
X70175476Y-122340714D01*
X70223095Y-122435952D01*
X69937380Y-121245476D02*
X69937380Y-121150238D01*
X69985000Y-121055000D01*
X70032619Y-121007380D01*
X70127857Y-120959761D01*
X70318333Y-120912142D01*
X70556428Y-120912142D01*
X70746904Y-120959761D01*
X70842142Y-121007380D01*
X70889761Y-121055000D01*
X70937380Y-121150238D01*
X70937380Y-121245476D01*
X70889761Y-121340714D01*
X70842142Y-121388333D01*
X70746904Y-121435952D01*
X70556428Y-121483571D01*
X70318333Y-121483571D01*
X70127857Y-121435952D01*
X70032619Y-121388333D01*
X69985000Y-121340714D01*
X69937380Y-121245476D01*
X69937380Y-120293095D02*
X69937380Y-120197857D01*
X69985000Y-120102619D01*
X70032619Y-120055000D01*
X70127857Y-120007380D01*
X70318333Y-119959761D01*
X70556428Y-119959761D01*
X70746904Y-120007380D01*
X70842142Y-120055000D01*
X70889761Y-120102619D01*
X70937380Y-120197857D01*
X70937380Y-120293095D01*
X70889761Y-120388333D01*
X70842142Y-120435952D01*
X70746904Y-120483571D01*
X70556428Y-120531190D01*
X70318333Y-120531190D01*
X70127857Y-120483571D01*
X70032619Y-120435952D01*
X69985000Y-120388333D01*
X69937380Y-120293095D01*
%TO.C,R7 2.2k*%
X77867142Y-126352380D02*
X77533809Y-125876190D01*
X77295714Y-126352380D02*
X77295714Y-125352380D01*
X77676666Y-125352380D01*
X77771904Y-125400000D01*
X77819523Y-125447619D01*
X77867142Y-125542857D01*
X77867142Y-125685714D01*
X77819523Y-125780952D01*
X77771904Y-125828571D01*
X77676666Y-125876190D01*
X77295714Y-125876190D01*
X78200476Y-125352380D02*
X78867142Y-125352380D01*
X78438571Y-126352380D01*
X79962380Y-125447619D02*
X80010000Y-125400000D01*
X80105238Y-125352380D01*
X80343333Y-125352380D01*
X80438571Y-125400000D01*
X80486190Y-125447619D01*
X80533809Y-125542857D01*
X80533809Y-125638095D01*
X80486190Y-125780952D01*
X79914761Y-126352380D01*
X80533809Y-126352380D01*
X80962380Y-126257142D02*
X81010000Y-126304761D01*
X80962380Y-126352380D01*
X80914761Y-126304761D01*
X80962380Y-126257142D01*
X80962380Y-126352380D01*
X81390952Y-125447619D02*
X81438571Y-125400000D01*
X81533809Y-125352380D01*
X81771904Y-125352380D01*
X81867142Y-125400000D01*
X81914761Y-125447619D01*
X81962380Y-125542857D01*
X81962380Y-125638095D01*
X81914761Y-125780952D01*
X81343333Y-126352380D01*
X81962380Y-126352380D01*
X82390952Y-126352380D02*
X82390952Y-125352380D01*
X82486190Y-125971428D02*
X82771904Y-126352380D01*
X82771904Y-125685714D02*
X82390952Y-126066666D01*
%TO.C,R8 10k*%
X78105238Y-129527380D02*
X77771904Y-129051190D01*
X77533809Y-129527380D02*
X77533809Y-128527380D01*
X77914761Y-128527380D01*
X78010000Y-128575000D01*
X78057619Y-128622619D01*
X78105238Y-128717857D01*
X78105238Y-128860714D01*
X78057619Y-128955952D01*
X78010000Y-129003571D01*
X77914761Y-129051190D01*
X77533809Y-129051190D01*
X78676666Y-128955952D02*
X78581428Y-128908333D01*
X78533809Y-128860714D01*
X78486190Y-128765476D01*
X78486190Y-128717857D01*
X78533809Y-128622619D01*
X78581428Y-128575000D01*
X78676666Y-128527380D01*
X78867142Y-128527380D01*
X78962380Y-128575000D01*
X79010000Y-128622619D01*
X79057619Y-128717857D01*
X79057619Y-128765476D01*
X79010000Y-128860714D01*
X78962380Y-128908333D01*
X78867142Y-128955952D01*
X78676666Y-128955952D01*
X78581428Y-129003571D01*
X78533809Y-129051190D01*
X78486190Y-129146428D01*
X78486190Y-129336904D01*
X78533809Y-129432142D01*
X78581428Y-129479761D01*
X78676666Y-129527380D01*
X78867142Y-129527380D01*
X78962380Y-129479761D01*
X79010000Y-129432142D01*
X79057619Y-129336904D01*
X79057619Y-129146428D01*
X79010000Y-129051190D01*
X78962380Y-129003571D01*
X78867142Y-128955952D01*
X80771904Y-129527380D02*
X80200476Y-129527380D01*
X80486190Y-129527380D02*
X80486190Y-128527380D01*
X80390952Y-128670238D01*
X80295714Y-128765476D01*
X80200476Y-128813095D01*
X81390952Y-128527380D02*
X81486190Y-128527380D01*
X81581428Y-128575000D01*
X81629047Y-128622619D01*
X81676666Y-128717857D01*
X81724285Y-128908333D01*
X81724285Y-129146428D01*
X81676666Y-129336904D01*
X81629047Y-129432142D01*
X81581428Y-129479761D01*
X81486190Y-129527380D01*
X81390952Y-129527380D01*
X81295714Y-129479761D01*
X81248095Y-129432142D01*
X81200476Y-129336904D01*
X81152857Y-129146428D01*
X81152857Y-128908333D01*
X81200476Y-128717857D01*
X81248095Y-128622619D01*
X81295714Y-128575000D01*
X81390952Y-128527380D01*
X82152857Y-129527380D02*
X82152857Y-128527380D01*
X82248095Y-129146428D02*
X82533809Y-129527380D01*
X82533809Y-128860714D02*
X82152857Y-129241666D01*
%TO.C,R9 10k*%
X78105238Y-132702380D02*
X77771904Y-132226190D01*
X77533809Y-132702380D02*
X77533809Y-131702380D01*
X77914761Y-131702380D01*
X78010000Y-131750000D01*
X78057619Y-131797619D01*
X78105238Y-131892857D01*
X78105238Y-132035714D01*
X78057619Y-132130952D01*
X78010000Y-132178571D01*
X77914761Y-132226190D01*
X77533809Y-132226190D01*
X78581428Y-132702380D02*
X78771904Y-132702380D01*
X78867142Y-132654761D01*
X78914761Y-132607142D01*
X79010000Y-132464285D01*
X79057619Y-132273809D01*
X79057619Y-131892857D01*
X79010000Y-131797619D01*
X78962380Y-131750000D01*
X78867142Y-131702380D01*
X78676666Y-131702380D01*
X78581428Y-131750000D01*
X78533809Y-131797619D01*
X78486190Y-131892857D01*
X78486190Y-132130952D01*
X78533809Y-132226190D01*
X78581428Y-132273809D01*
X78676666Y-132321428D01*
X78867142Y-132321428D01*
X78962380Y-132273809D01*
X79010000Y-132226190D01*
X79057619Y-132130952D01*
X80771904Y-132702380D02*
X80200476Y-132702380D01*
X80486190Y-132702380D02*
X80486190Y-131702380D01*
X80390952Y-131845238D01*
X80295714Y-131940476D01*
X80200476Y-131988095D01*
X81390952Y-131702380D02*
X81486190Y-131702380D01*
X81581428Y-131750000D01*
X81629047Y-131797619D01*
X81676666Y-131892857D01*
X81724285Y-132083333D01*
X81724285Y-132321428D01*
X81676666Y-132511904D01*
X81629047Y-132607142D01*
X81581428Y-132654761D01*
X81486190Y-132702380D01*
X81390952Y-132702380D01*
X81295714Y-132654761D01*
X81248095Y-132607142D01*
X81200476Y-132511904D01*
X81152857Y-132321428D01*
X81152857Y-132083333D01*
X81200476Y-131892857D01*
X81248095Y-131797619D01*
X81295714Y-131750000D01*
X81390952Y-131702380D01*
X82152857Y-132702380D02*
X82152857Y-131702380D01*
X82248095Y-132321428D02*
X82533809Y-132702380D01*
X82533809Y-132035714D02*
X82152857Y-132416666D01*
%TO.C,R10 10k*%
X67127380Y-135730952D02*
X66651190Y-136064285D01*
X67127380Y-136302380D02*
X66127380Y-136302380D01*
X66127380Y-135921428D01*
X66175000Y-135826190D01*
X66222619Y-135778571D01*
X66317857Y-135730952D01*
X66460714Y-135730952D01*
X66555952Y-135778571D01*
X66603571Y-135826190D01*
X66651190Y-135921428D01*
X66651190Y-136302380D01*
X67127380Y-134778571D02*
X67127380Y-135350000D01*
X67127380Y-135064285D02*
X66127380Y-135064285D01*
X66270238Y-135159523D01*
X66365476Y-135254761D01*
X66413095Y-135350000D01*
X66127380Y-134159523D02*
X66127380Y-134064285D01*
X66175000Y-133969047D01*
X66222619Y-133921428D01*
X66317857Y-133873809D01*
X66508333Y-133826190D01*
X66746428Y-133826190D01*
X66936904Y-133873809D01*
X67032142Y-133921428D01*
X67079761Y-133969047D01*
X67127380Y-134064285D01*
X67127380Y-134159523D01*
X67079761Y-134254761D01*
X67032142Y-134302380D01*
X66936904Y-134350000D01*
X66746428Y-134397619D01*
X66508333Y-134397619D01*
X66317857Y-134350000D01*
X66222619Y-134302380D01*
X66175000Y-134254761D01*
X66127380Y-134159523D01*
X67127380Y-132111904D02*
X67127380Y-132683333D01*
X67127380Y-132397619D02*
X66127380Y-132397619D01*
X66270238Y-132492857D01*
X66365476Y-132588095D01*
X66413095Y-132683333D01*
X66127380Y-131492857D02*
X66127380Y-131397619D01*
X66175000Y-131302380D01*
X66222619Y-131254761D01*
X66317857Y-131207142D01*
X66508333Y-131159523D01*
X66746428Y-131159523D01*
X66936904Y-131207142D01*
X67032142Y-131254761D01*
X67079761Y-131302380D01*
X67127380Y-131397619D01*
X67127380Y-131492857D01*
X67079761Y-131588095D01*
X67032142Y-131635714D01*
X66936904Y-131683333D01*
X66746428Y-131730952D01*
X66508333Y-131730952D01*
X66317857Y-131683333D01*
X66222619Y-131635714D01*
X66175000Y-131588095D01*
X66127380Y-131492857D01*
X67127380Y-130730952D02*
X66127380Y-130730952D01*
X66746428Y-130635714D02*
X67127380Y-130350000D01*
X66460714Y-130350000D02*
X66841666Y-130730952D01*
%TO.C,R12 10k*%
X77629047Y-152852380D02*
X77295714Y-152376190D01*
X77057619Y-152852380D02*
X77057619Y-151852380D01*
X77438571Y-151852380D01*
X77533809Y-151900000D01*
X77581428Y-151947619D01*
X77629047Y-152042857D01*
X77629047Y-152185714D01*
X77581428Y-152280952D01*
X77533809Y-152328571D01*
X77438571Y-152376190D01*
X77057619Y-152376190D01*
X78581428Y-152852380D02*
X78010000Y-152852380D01*
X78295714Y-152852380D02*
X78295714Y-151852380D01*
X78200476Y-151995238D01*
X78105238Y-152090476D01*
X78010000Y-152138095D01*
X78962380Y-151947619D02*
X79010000Y-151900000D01*
X79105238Y-151852380D01*
X79343333Y-151852380D01*
X79438571Y-151900000D01*
X79486190Y-151947619D01*
X79533809Y-152042857D01*
X79533809Y-152138095D01*
X79486190Y-152280952D01*
X78914761Y-152852380D01*
X79533809Y-152852380D01*
X81248095Y-152852380D02*
X80676666Y-152852380D01*
X80962380Y-152852380D02*
X80962380Y-151852380D01*
X80867142Y-151995238D01*
X80771904Y-152090476D01*
X80676666Y-152138095D01*
X81867142Y-151852380D02*
X81962380Y-151852380D01*
X82057619Y-151900000D01*
X82105238Y-151947619D01*
X82152857Y-152042857D01*
X82200476Y-152233333D01*
X82200476Y-152471428D01*
X82152857Y-152661904D01*
X82105238Y-152757142D01*
X82057619Y-152804761D01*
X81962380Y-152852380D01*
X81867142Y-152852380D01*
X81771904Y-152804761D01*
X81724285Y-152757142D01*
X81676666Y-152661904D01*
X81629047Y-152471428D01*
X81629047Y-152233333D01*
X81676666Y-152042857D01*
X81724285Y-151947619D01*
X81771904Y-151900000D01*
X81867142Y-151852380D01*
X82629047Y-152852380D02*
X82629047Y-151852380D01*
X82724285Y-152471428D02*
X83010000Y-152852380D01*
X83010000Y-152185714D02*
X82629047Y-152566666D01*
%TO.C,R13 10k*%
X77629047Y-156027380D02*
X77295714Y-155551190D01*
X77057619Y-156027380D02*
X77057619Y-155027380D01*
X77438571Y-155027380D01*
X77533809Y-155075000D01*
X77581428Y-155122619D01*
X77629047Y-155217857D01*
X77629047Y-155360714D01*
X77581428Y-155455952D01*
X77533809Y-155503571D01*
X77438571Y-155551190D01*
X77057619Y-155551190D01*
X78581428Y-156027380D02*
X78010000Y-156027380D01*
X78295714Y-156027380D02*
X78295714Y-155027380D01*
X78200476Y-155170238D01*
X78105238Y-155265476D01*
X78010000Y-155313095D01*
X78914761Y-155027380D02*
X79533809Y-155027380D01*
X79200476Y-155408333D01*
X79343333Y-155408333D01*
X79438571Y-155455952D01*
X79486190Y-155503571D01*
X79533809Y-155598809D01*
X79533809Y-155836904D01*
X79486190Y-155932142D01*
X79438571Y-155979761D01*
X79343333Y-156027380D01*
X79057619Y-156027380D01*
X78962380Y-155979761D01*
X78914761Y-155932142D01*
X81248095Y-156027380D02*
X80676666Y-156027380D01*
X80962380Y-156027380D02*
X80962380Y-155027380D01*
X80867142Y-155170238D01*
X80771904Y-155265476D01*
X80676666Y-155313095D01*
X81867142Y-155027380D02*
X81962380Y-155027380D01*
X82057619Y-155075000D01*
X82105238Y-155122619D01*
X82152857Y-155217857D01*
X82200476Y-155408333D01*
X82200476Y-155646428D01*
X82152857Y-155836904D01*
X82105238Y-155932142D01*
X82057619Y-155979761D01*
X81962380Y-156027380D01*
X81867142Y-156027380D01*
X81771904Y-155979761D01*
X81724285Y-155932142D01*
X81676666Y-155836904D01*
X81629047Y-155646428D01*
X81629047Y-155408333D01*
X81676666Y-155217857D01*
X81724285Y-155122619D01*
X81771904Y-155075000D01*
X81867142Y-155027380D01*
X82629047Y-156027380D02*
X82629047Y-155027380D01*
X82724285Y-155646428D02*
X83010000Y-156027380D01*
X83010000Y-155360714D02*
X82629047Y-155741666D01*
%TO.C,R14 4.7k*%
X67297380Y-167084047D02*
X66821190Y-167417380D01*
X67297380Y-167655476D02*
X66297380Y-167655476D01*
X66297380Y-167274523D01*
X66345000Y-167179285D01*
X66392619Y-167131666D01*
X66487857Y-167084047D01*
X66630714Y-167084047D01*
X66725952Y-167131666D01*
X66773571Y-167179285D01*
X66821190Y-167274523D01*
X66821190Y-167655476D01*
X67297380Y-166131666D02*
X67297380Y-166703095D01*
X67297380Y-166417380D02*
X66297380Y-166417380D01*
X66440238Y-166512619D01*
X66535476Y-166607857D01*
X66583095Y-166703095D01*
X66630714Y-165274523D02*
X67297380Y-165274523D01*
X66249761Y-165512619D02*
X66964047Y-165750714D01*
X66964047Y-165131666D01*
X66630714Y-163560238D02*
X67297380Y-163560238D01*
X66249761Y-163798333D02*
X66964047Y-164036428D01*
X66964047Y-163417380D01*
X67202142Y-163036428D02*
X67249761Y-162988809D01*
X67297380Y-163036428D01*
X67249761Y-163084047D01*
X67202142Y-163036428D01*
X67297380Y-163036428D01*
X66297380Y-162655476D02*
X66297380Y-161988809D01*
X67297380Y-162417380D01*
X67297380Y-161607857D02*
X66297380Y-161607857D01*
X66916428Y-161512619D02*
X67297380Y-161226904D01*
X66630714Y-161226904D02*
X67011666Y-161607857D01*
%TO.C,R15 10k*%
X67297380Y-156685952D02*
X66821190Y-157019285D01*
X67297380Y-157257380D02*
X66297380Y-157257380D01*
X66297380Y-156876428D01*
X66345000Y-156781190D01*
X66392619Y-156733571D01*
X66487857Y-156685952D01*
X66630714Y-156685952D01*
X66725952Y-156733571D01*
X66773571Y-156781190D01*
X66821190Y-156876428D01*
X66821190Y-157257380D01*
X67297380Y-155733571D02*
X67297380Y-156305000D01*
X67297380Y-156019285D02*
X66297380Y-156019285D01*
X66440238Y-156114523D01*
X66535476Y-156209761D01*
X66583095Y-156305000D01*
X66297380Y-154828809D02*
X66297380Y-155305000D01*
X66773571Y-155352619D01*
X66725952Y-155305000D01*
X66678333Y-155209761D01*
X66678333Y-154971666D01*
X66725952Y-154876428D01*
X66773571Y-154828809D01*
X66868809Y-154781190D01*
X67106904Y-154781190D01*
X67202142Y-154828809D01*
X67249761Y-154876428D01*
X67297380Y-154971666D01*
X67297380Y-155209761D01*
X67249761Y-155305000D01*
X67202142Y-155352619D01*
X67297380Y-153066904D02*
X67297380Y-153638333D01*
X67297380Y-153352619D02*
X66297380Y-153352619D01*
X66440238Y-153447857D01*
X66535476Y-153543095D01*
X66583095Y-153638333D01*
X66297380Y-152447857D02*
X66297380Y-152352619D01*
X66345000Y-152257380D01*
X66392619Y-152209761D01*
X66487857Y-152162142D01*
X66678333Y-152114523D01*
X66916428Y-152114523D01*
X67106904Y-152162142D01*
X67202142Y-152209761D01*
X67249761Y-152257380D01*
X67297380Y-152352619D01*
X67297380Y-152447857D01*
X67249761Y-152543095D01*
X67202142Y-152590714D01*
X67106904Y-152638333D01*
X66916428Y-152685952D01*
X66678333Y-152685952D01*
X66487857Y-152638333D01*
X66392619Y-152590714D01*
X66345000Y-152543095D01*
X66297380Y-152447857D01*
X67297380Y-151685952D02*
X66297380Y-151685952D01*
X66916428Y-151590714D02*
X67297380Y-151305000D01*
X66630714Y-151305000D02*
X67011666Y-151685952D01*
%TO.C,R16 10k*%
X67297380Y-146525952D02*
X66821190Y-146859285D01*
X67297380Y-147097380D02*
X66297380Y-147097380D01*
X66297380Y-146716428D01*
X66345000Y-146621190D01*
X66392619Y-146573571D01*
X66487857Y-146525952D01*
X66630714Y-146525952D01*
X66725952Y-146573571D01*
X66773571Y-146621190D01*
X66821190Y-146716428D01*
X66821190Y-147097380D01*
X67297380Y-145573571D02*
X67297380Y-146145000D01*
X67297380Y-145859285D02*
X66297380Y-145859285D01*
X66440238Y-145954523D01*
X66535476Y-146049761D01*
X66583095Y-146145000D01*
X66297380Y-144716428D02*
X66297380Y-144906904D01*
X66345000Y-145002142D01*
X66392619Y-145049761D01*
X66535476Y-145145000D01*
X66725952Y-145192619D01*
X67106904Y-145192619D01*
X67202142Y-145145000D01*
X67249761Y-145097380D01*
X67297380Y-145002142D01*
X67297380Y-144811666D01*
X67249761Y-144716428D01*
X67202142Y-144668809D01*
X67106904Y-144621190D01*
X66868809Y-144621190D01*
X66773571Y-144668809D01*
X66725952Y-144716428D01*
X66678333Y-144811666D01*
X66678333Y-145002142D01*
X66725952Y-145097380D01*
X66773571Y-145145000D01*
X66868809Y-145192619D01*
X67297380Y-142906904D02*
X67297380Y-143478333D01*
X67297380Y-143192619D02*
X66297380Y-143192619D01*
X66440238Y-143287857D01*
X66535476Y-143383095D01*
X66583095Y-143478333D01*
X66297380Y-142287857D02*
X66297380Y-142192619D01*
X66345000Y-142097380D01*
X66392619Y-142049761D01*
X66487857Y-142002142D01*
X66678333Y-141954523D01*
X66916428Y-141954523D01*
X67106904Y-142002142D01*
X67202142Y-142049761D01*
X67249761Y-142097380D01*
X67297380Y-142192619D01*
X67297380Y-142287857D01*
X67249761Y-142383095D01*
X67202142Y-142430714D01*
X67106904Y-142478333D01*
X66916428Y-142525952D01*
X66678333Y-142525952D01*
X66487857Y-142478333D01*
X66392619Y-142430714D01*
X66345000Y-142383095D01*
X66297380Y-142287857D01*
X67297380Y-141525952D02*
X66297380Y-141525952D01*
X66916428Y-141430714D02*
X67297380Y-141145000D01*
X66630714Y-141145000D02*
X67011666Y-141525952D01*
%TO.C,R17 4.7k*%
X71572380Y-146764047D02*
X71096190Y-147097380D01*
X71572380Y-147335476D02*
X70572380Y-147335476D01*
X70572380Y-146954523D01*
X70620000Y-146859285D01*
X70667619Y-146811666D01*
X70762857Y-146764047D01*
X70905714Y-146764047D01*
X71000952Y-146811666D01*
X71048571Y-146859285D01*
X71096190Y-146954523D01*
X71096190Y-147335476D01*
X71572380Y-145811666D02*
X71572380Y-146383095D01*
X71572380Y-146097380D02*
X70572380Y-146097380D01*
X70715238Y-146192619D01*
X70810476Y-146287857D01*
X70858095Y-146383095D01*
X70572380Y-145478333D02*
X70572380Y-144811666D01*
X71572380Y-145240238D01*
X70905714Y-143240238D02*
X71572380Y-143240238D01*
X70524761Y-143478333D02*
X71239047Y-143716428D01*
X71239047Y-143097380D01*
X71477142Y-142716428D02*
X71524761Y-142668809D01*
X71572380Y-142716428D01*
X71524761Y-142764047D01*
X71477142Y-142716428D01*
X71572380Y-142716428D01*
X70572380Y-142335476D02*
X70572380Y-141668809D01*
X71572380Y-142097380D01*
X71572380Y-141287857D02*
X70572380Y-141287857D01*
X71191428Y-141192619D02*
X71572380Y-140906904D01*
X70905714Y-140906904D02*
X71286666Y-141287857D01*
%TO.C,R18 2.2k*%
X71572380Y-135969047D02*
X71096190Y-136302380D01*
X71572380Y-136540476D02*
X70572380Y-136540476D01*
X70572380Y-136159523D01*
X70620000Y-136064285D01*
X70667619Y-136016666D01*
X70762857Y-135969047D01*
X70905714Y-135969047D01*
X71000952Y-136016666D01*
X71048571Y-136064285D01*
X71096190Y-136159523D01*
X71096190Y-136540476D01*
X71572380Y-135016666D02*
X71572380Y-135588095D01*
X71572380Y-135302380D02*
X70572380Y-135302380D01*
X70715238Y-135397619D01*
X70810476Y-135492857D01*
X70858095Y-135588095D01*
X71000952Y-134445238D02*
X70953333Y-134540476D01*
X70905714Y-134588095D01*
X70810476Y-134635714D01*
X70762857Y-134635714D01*
X70667619Y-134588095D01*
X70620000Y-134540476D01*
X70572380Y-134445238D01*
X70572380Y-134254761D01*
X70620000Y-134159523D01*
X70667619Y-134111904D01*
X70762857Y-134064285D01*
X70810476Y-134064285D01*
X70905714Y-134111904D01*
X70953333Y-134159523D01*
X71000952Y-134254761D01*
X71000952Y-134445238D01*
X71048571Y-134540476D01*
X71096190Y-134588095D01*
X71191428Y-134635714D01*
X71381904Y-134635714D01*
X71477142Y-134588095D01*
X71524761Y-134540476D01*
X71572380Y-134445238D01*
X71572380Y-134254761D01*
X71524761Y-134159523D01*
X71477142Y-134111904D01*
X71381904Y-134064285D01*
X71191428Y-134064285D01*
X71096190Y-134111904D01*
X71048571Y-134159523D01*
X71000952Y-134254761D01*
X70667619Y-132921428D02*
X70620000Y-132873809D01*
X70572380Y-132778571D01*
X70572380Y-132540476D01*
X70620000Y-132445238D01*
X70667619Y-132397619D01*
X70762857Y-132350000D01*
X70858095Y-132350000D01*
X71000952Y-132397619D01*
X71572380Y-132969047D01*
X71572380Y-132350000D01*
X71477142Y-131921428D02*
X71524761Y-131873809D01*
X71572380Y-131921428D01*
X71524761Y-131969047D01*
X71477142Y-131921428D01*
X71572380Y-131921428D01*
X70667619Y-131492857D02*
X70620000Y-131445238D01*
X70572380Y-131350000D01*
X70572380Y-131111904D01*
X70620000Y-131016666D01*
X70667619Y-130969047D01*
X70762857Y-130921428D01*
X70858095Y-130921428D01*
X71000952Y-130969047D01*
X71572380Y-131540476D01*
X71572380Y-130921428D01*
X71572380Y-130492857D02*
X70572380Y-130492857D01*
X71191428Y-130397619D02*
X71572380Y-130111904D01*
X70905714Y-130111904D02*
X71286666Y-130492857D01*
%TO.C,LM358*%
X78319523Y-114962380D02*
X77843333Y-114962380D01*
X77843333Y-113962380D01*
X78652857Y-114962380D02*
X78652857Y-113962380D01*
X78986190Y-114676666D01*
X79319523Y-113962380D01*
X79319523Y-114962380D01*
X79700476Y-113962380D02*
X80319523Y-113962380D01*
X79986190Y-114343333D01*
X80129047Y-114343333D01*
X80224285Y-114390952D01*
X80271904Y-114438571D01*
X80319523Y-114533809D01*
X80319523Y-114771904D01*
X80271904Y-114867142D01*
X80224285Y-114914761D01*
X80129047Y-114962380D01*
X79843333Y-114962380D01*
X79748095Y-114914761D01*
X79700476Y-114867142D01*
X81224285Y-113962380D02*
X80748095Y-113962380D01*
X80700476Y-114438571D01*
X80748095Y-114390952D01*
X80843333Y-114343333D01*
X81081428Y-114343333D01*
X81176666Y-114390952D01*
X81224285Y-114438571D01*
X81271904Y-114533809D01*
X81271904Y-114771904D01*
X81224285Y-114867142D01*
X81176666Y-114914761D01*
X81081428Y-114962380D01*
X80843333Y-114962380D01*
X80748095Y-114914761D01*
X80700476Y-114867142D01*
X81843333Y-114390952D02*
X81748095Y-114343333D01*
X81700476Y-114295714D01*
X81652857Y-114200476D01*
X81652857Y-114152857D01*
X81700476Y-114057619D01*
X81748095Y-114010000D01*
X81843333Y-113962380D01*
X82033809Y-113962380D01*
X82129047Y-114010000D01*
X82176666Y-114057619D01*
X82224285Y-114152857D01*
X82224285Y-114200476D01*
X82176666Y-114295714D01*
X82129047Y-114343333D01*
X82033809Y-114390952D01*
X81843333Y-114390952D01*
X81748095Y-114438571D01*
X81700476Y-114486190D01*
X81652857Y-114581428D01*
X81652857Y-114771904D01*
X81700476Y-114867142D01*
X81748095Y-114914761D01*
X81843333Y-114962380D01*
X82033809Y-114962380D01*
X82129047Y-114914761D01*
X82176666Y-114867142D01*
X82224285Y-114771904D01*
X82224285Y-114581428D01*
X82176666Y-114486190D01*
X82129047Y-114438571D01*
X82033809Y-114390952D01*
X78319523Y-136552380D02*
X77843333Y-136552380D01*
X77843333Y-135552380D01*
X78652857Y-136552380D02*
X78652857Y-135552380D01*
X78986190Y-136266666D01*
X79319523Y-135552380D01*
X79319523Y-136552380D01*
X79700476Y-135552380D02*
X80319523Y-135552380D01*
X79986190Y-135933333D01*
X80129047Y-135933333D01*
X80224285Y-135980952D01*
X80271904Y-136028571D01*
X80319523Y-136123809D01*
X80319523Y-136361904D01*
X80271904Y-136457142D01*
X80224285Y-136504761D01*
X80129047Y-136552380D01*
X79843333Y-136552380D01*
X79748095Y-136504761D01*
X79700476Y-136457142D01*
X81224285Y-135552380D02*
X80748095Y-135552380D01*
X80700476Y-136028571D01*
X80748095Y-135980952D01*
X80843333Y-135933333D01*
X81081428Y-135933333D01*
X81176666Y-135980952D01*
X81224285Y-136028571D01*
X81271904Y-136123809D01*
X81271904Y-136361904D01*
X81224285Y-136457142D01*
X81176666Y-136504761D01*
X81081428Y-136552380D01*
X80843333Y-136552380D01*
X80748095Y-136504761D01*
X80700476Y-136457142D01*
X81843333Y-135980952D02*
X81748095Y-135933333D01*
X81700476Y-135885714D01*
X81652857Y-135790476D01*
X81652857Y-135742857D01*
X81700476Y-135647619D01*
X81748095Y-135600000D01*
X81843333Y-135552380D01*
X82033809Y-135552380D01*
X82129047Y-135600000D01*
X82176666Y-135647619D01*
X82224285Y-135742857D01*
X82224285Y-135790476D01*
X82176666Y-135885714D01*
X82129047Y-135933333D01*
X82033809Y-135980952D01*
X81843333Y-135980952D01*
X81748095Y-136028571D01*
X81700476Y-136076190D01*
X81652857Y-136171428D01*
X81652857Y-136361904D01*
X81700476Y-136457142D01*
X81748095Y-136504761D01*
X81843333Y-136552380D01*
X82033809Y-136552380D01*
X82129047Y-136504761D01*
X82176666Y-136457142D01*
X82224285Y-136361904D01*
X82224285Y-136171428D01*
X82176666Y-136076190D01*
X82129047Y-136028571D01*
X82033809Y-135980952D01*
X78319523Y-160047380D02*
X77843333Y-160047380D01*
X77843333Y-159047380D01*
X78652857Y-160047380D02*
X78652857Y-159047380D01*
X78986190Y-159761666D01*
X79319523Y-159047380D01*
X79319523Y-160047380D01*
X79700476Y-159047380D02*
X80319523Y-159047380D01*
X79986190Y-159428333D01*
X80129047Y-159428333D01*
X80224285Y-159475952D01*
X80271904Y-159523571D01*
X80319523Y-159618809D01*
X80319523Y-159856904D01*
X80271904Y-159952142D01*
X80224285Y-159999761D01*
X80129047Y-160047380D01*
X79843333Y-160047380D01*
X79748095Y-159999761D01*
X79700476Y-159952142D01*
X81224285Y-159047380D02*
X80748095Y-159047380D01*
X80700476Y-159523571D01*
X80748095Y-159475952D01*
X80843333Y-159428333D01*
X81081428Y-159428333D01*
X81176666Y-159475952D01*
X81224285Y-159523571D01*
X81271904Y-159618809D01*
X81271904Y-159856904D01*
X81224285Y-159952142D01*
X81176666Y-159999761D01*
X81081428Y-160047380D01*
X80843333Y-160047380D01*
X80748095Y-159999761D01*
X80700476Y-159952142D01*
X81843333Y-159475952D02*
X81748095Y-159428333D01*
X81700476Y-159380714D01*
X81652857Y-159285476D01*
X81652857Y-159237857D01*
X81700476Y-159142619D01*
X81748095Y-159095000D01*
X81843333Y-159047380D01*
X82033809Y-159047380D01*
X82129047Y-159095000D01*
X82176666Y-159142619D01*
X82224285Y-159237857D01*
X82224285Y-159285476D01*
X82176666Y-159380714D01*
X82129047Y-159428333D01*
X82033809Y-159475952D01*
X81843333Y-159475952D01*
X81748095Y-159523571D01*
X81700476Y-159571190D01*
X81652857Y-159666428D01*
X81652857Y-159856904D01*
X81700476Y-159952142D01*
X81748095Y-159999761D01*
X81843333Y-160047380D01*
X82033809Y-160047380D01*
X82129047Y-159999761D01*
X82176666Y-159952142D01*
X82224285Y-159856904D01*
X82224285Y-159666428D01*
X82176666Y-159571190D01*
X82129047Y-159523571D01*
X82033809Y-159475952D01*
%TO.C,TLE2426*%
X76962380Y-94277380D02*
X77533809Y-94277380D01*
X77248095Y-95277380D02*
X77248095Y-94277380D01*
X78343333Y-95277380D02*
X77867142Y-95277380D01*
X77867142Y-94277380D01*
X78676666Y-94753571D02*
X79010000Y-94753571D01*
X79152857Y-95277380D02*
X78676666Y-95277380D01*
X78676666Y-94277380D01*
X79152857Y-94277380D01*
X79533809Y-94372619D02*
X79581428Y-94325000D01*
X79676666Y-94277380D01*
X79914761Y-94277380D01*
X80010000Y-94325000D01*
X80057619Y-94372619D01*
X80105238Y-94467857D01*
X80105238Y-94563095D01*
X80057619Y-94705952D01*
X79486190Y-95277380D01*
X80105238Y-95277380D01*
X80962380Y-94610714D02*
X80962380Y-95277380D01*
X80724285Y-94229761D02*
X80486190Y-94944047D01*
X81105238Y-94944047D01*
X81438571Y-94372619D02*
X81486190Y-94325000D01*
X81581428Y-94277380D01*
X81819523Y-94277380D01*
X81914761Y-94325000D01*
X81962380Y-94372619D01*
X82010000Y-94467857D01*
X82010000Y-94563095D01*
X81962380Y-94705952D01*
X81390952Y-95277380D01*
X82010000Y-95277380D01*
X82867142Y-94277380D02*
X82676666Y-94277380D01*
X82581428Y-94325000D01*
X82533809Y-94372619D01*
X82438571Y-94515476D01*
X82390952Y-94705952D01*
X82390952Y-95086904D01*
X82438571Y-95182142D01*
X82486190Y-95229761D01*
X82581428Y-95277380D01*
X82771904Y-95277380D01*
X82867142Y-95229761D01*
X82914761Y-95182142D01*
X82962380Y-95086904D01*
X82962380Y-94848809D01*
X82914761Y-94753571D01*
X82867142Y-94705952D01*
X82771904Y-94658333D01*
X82581428Y-94658333D01*
X82486190Y-94705952D01*
X82438571Y-94753571D01*
X82390952Y-94848809D01*
%TO.C,U5*%
X59777380Y-141096904D02*
X60586904Y-141096904D01*
X60682142Y-141049285D01*
X60729761Y-141001666D01*
X60777380Y-140906428D01*
X60777380Y-140715952D01*
X60729761Y-140620714D01*
X60682142Y-140573095D01*
X60586904Y-140525476D01*
X59777380Y-140525476D01*
X59777380Y-139573095D02*
X59777380Y-140049285D01*
X60253571Y-140096904D01*
X60205952Y-140049285D01*
X60158333Y-139954047D01*
X60158333Y-139715952D01*
X60205952Y-139620714D01*
X60253571Y-139573095D01*
X60348809Y-139525476D01*
X60586904Y-139525476D01*
X60682142Y-139573095D01*
X60729761Y-139620714D01*
X60777380Y-139715952D01*
X60777380Y-139954047D01*
X60729761Y-140049285D01*
X60682142Y-140096904D01*
X50481666Y-146655000D02*
X49781666Y-146655000D01*
X50281666Y-146421666D01*
X49781666Y-146188333D01*
X50481666Y-146188333D01*
X50481666Y-145855000D02*
X49781666Y-145855000D01*
X50481666Y-145455000D02*
X50081666Y-145755000D01*
X49781666Y-145455000D02*
X50181666Y-145855000D01*
X49781666Y-144855000D02*
X49781666Y-144988333D01*
X49815000Y-145055000D01*
X49848333Y-145088333D01*
X49948333Y-145155000D01*
X50081666Y-145188333D01*
X50348333Y-145188333D01*
X50415000Y-145155000D01*
X50448333Y-145121666D01*
X50481666Y-145055000D01*
X50481666Y-144921666D01*
X50448333Y-144855000D01*
X50415000Y-144821666D01*
X50348333Y-144788333D01*
X50181666Y-144788333D01*
X50115000Y-144821666D01*
X50081666Y-144855000D01*
X50048333Y-144921666D01*
X50048333Y-145055000D01*
X50081666Y-145121666D01*
X50115000Y-145155000D01*
X50181666Y-145188333D01*
X49781666Y-144188333D02*
X49781666Y-144321666D01*
X49815000Y-144388333D01*
X49848333Y-144421666D01*
X49948333Y-144488333D01*
X50081666Y-144521666D01*
X50348333Y-144521666D01*
X50415000Y-144488333D01*
X50448333Y-144455000D01*
X50481666Y-144388333D01*
X50481666Y-144255000D01*
X50448333Y-144188333D01*
X50415000Y-144155000D01*
X50348333Y-144121666D01*
X50181666Y-144121666D01*
X50115000Y-144155000D01*
X50081666Y-144188333D01*
X50048333Y-144255000D01*
X50048333Y-144388333D01*
X50081666Y-144455000D01*
X50115000Y-144488333D01*
X50181666Y-144521666D01*
X50115000Y-143588333D02*
X50115000Y-143821666D01*
X50481666Y-143821666D02*
X49781666Y-143821666D01*
X49781666Y-143488333D01*
X49781666Y-143288333D02*
X50481666Y-142821666D01*
X49781666Y-142821666D02*
X50481666Y-143288333D01*
X50481666Y-142188333D02*
X50481666Y-142588333D01*
X50481666Y-142388333D02*
X49781666Y-142388333D01*
X49881666Y-142455000D01*
X49948333Y-142521666D01*
X49981666Y-142588333D01*
X50481666Y-141888333D02*
X49781666Y-141888333D01*
X50281666Y-141655000D01*
X49781666Y-141421666D01*
X50481666Y-141421666D01*
X50115000Y-140855000D02*
X50148333Y-140755000D01*
X50181666Y-140721666D01*
X50248333Y-140688333D01*
X50348333Y-140688333D01*
X50415000Y-140721666D01*
X50448333Y-140755000D01*
X50481666Y-140821666D01*
X50481666Y-141088333D01*
X49781666Y-141088333D01*
X49781666Y-140855000D01*
X49815000Y-140788333D01*
X49848333Y-140755000D01*
X49915000Y-140721666D01*
X49981666Y-140721666D01*
X50048333Y-140755000D01*
X50081666Y-140788333D01*
X50115000Y-140855000D01*
X50115000Y-141088333D01*
X49781666Y-140488333D02*
X50481666Y-140255000D01*
X49781666Y-140021666D01*
X50481666Y-139788333D02*
X49781666Y-139788333D01*
X50281666Y-139555000D01*
X49781666Y-139321666D01*
X50481666Y-139321666D01*
X50481666Y-138988333D02*
X49781666Y-138988333D01*
X49781666Y-138821666D01*
X49815000Y-138721666D01*
X49881666Y-138655000D01*
X49948333Y-138621666D01*
X50081666Y-138588333D01*
X50181666Y-138588333D01*
X50315000Y-138621666D01*
X50381666Y-138655000D01*
X50448333Y-138721666D01*
X50481666Y-138821666D01*
X50481666Y-138988333D01*
X50481666Y-137921666D02*
X50481666Y-138321666D01*
X50481666Y-138121666D02*
X49781666Y-138121666D01*
X49881666Y-138188333D01*
X49948333Y-138255000D01*
X49981666Y-138321666D01*
X50081666Y-137521666D02*
X50048333Y-137588333D01*
X50015000Y-137621666D01*
X49948333Y-137655000D01*
X49915000Y-137655000D01*
X49848333Y-137621666D01*
X49815000Y-137588333D01*
X49781666Y-137521666D01*
X49781666Y-137388333D01*
X49815000Y-137321666D01*
X49848333Y-137288333D01*
X49915000Y-137255000D01*
X49948333Y-137255000D01*
X50015000Y-137288333D01*
X50048333Y-137321666D01*
X50081666Y-137388333D01*
X50081666Y-137521666D01*
X50115000Y-137588333D01*
X50148333Y-137621666D01*
X50215000Y-137655000D01*
X50348333Y-137655000D01*
X50415000Y-137621666D01*
X50448333Y-137588333D01*
X50481666Y-137521666D01*
X50481666Y-137388333D01*
X50448333Y-137321666D01*
X50415000Y-137288333D01*
X50348333Y-137255000D01*
X50215000Y-137255000D01*
X50148333Y-137288333D01*
X50115000Y-137321666D01*
X50081666Y-137388333D01*
X49748333Y-136455000D02*
X50648333Y-137055000D01*
X49338666Y-146205000D02*
X48638666Y-146205000D01*
X49138666Y-145971666D01*
X48638666Y-145738333D01*
X49338666Y-145738333D01*
X49338666Y-145405000D02*
X48638666Y-145405000D01*
X49338666Y-145005000D02*
X48938666Y-145305000D01*
X48638666Y-145005000D02*
X49038666Y-145405000D01*
X48638666Y-144405000D02*
X48638666Y-144538333D01*
X48672000Y-144605000D01*
X48705333Y-144638333D01*
X48805333Y-144705000D01*
X48938666Y-144738333D01*
X49205333Y-144738333D01*
X49272000Y-144705000D01*
X49305333Y-144671666D01*
X49338666Y-144605000D01*
X49338666Y-144471666D01*
X49305333Y-144405000D01*
X49272000Y-144371666D01*
X49205333Y-144338333D01*
X49038666Y-144338333D01*
X48972000Y-144371666D01*
X48938666Y-144405000D01*
X48905333Y-144471666D01*
X48905333Y-144605000D01*
X48938666Y-144671666D01*
X48972000Y-144705000D01*
X49038666Y-144738333D01*
X48872000Y-143738333D02*
X49338666Y-143738333D01*
X48605333Y-143905000D02*
X49105333Y-144071666D01*
X49105333Y-143638333D01*
X48972000Y-143138333D02*
X48972000Y-143371666D01*
X49338666Y-143371666D02*
X48638666Y-143371666D01*
X48638666Y-143038333D01*
X48638666Y-142838333D02*
X49338666Y-142371666D01*
X48638666Y-142371666D02*
X49338666Y-142838333D01*
X48638666Y-141771666D02*
X48638666Y-142105000D01*
X48972000Y-142138333D01*
X48938666Y-142105000D01*
X48905333Y-142038333D01*
X48905333Y-141871666D01*
X48938666Y-141805000D01*
X48972000Y-141771666D01*
X49038666Y-141738333D01*
X49205333Y-141738333D01*
X49272000Y-141771666D01*
X49305333Y-141805000D01*
X49338666Y-141871666D01*
X49338666Y-142038333D01*
X49305333Y-142105000D01*
X49272000Y-142138333D01*
X49338666Y-141071666D02*
X49338666Y-141471666D01*
X49338666Y-141271666D02*
X48638666Y-141271666D01*
X48738666Y-141338333D01*
X48805333Y-141405000D01*
X48838666Y-141471666D01*
X48705333Y-140805000D02*
X48672000Y-140771666D01*
X48638666Y-140705000D01*
X48638666Y-140538333D01*
X48672000Y-140471666D01*
X48705333Y-140438333D01*
X48772000Y-140405000D01*
X48838666Y-140405000D01*
X48938666Y-140438333D01*
X49338666Y-140838333D01*
X49338666Y-140405000D01*
X48638666Y-140205000D02*
X49338666Y-139971666D01*
X48638666Y-139738333D01*
X49338666Y-139505000D02*
X48638666Y-139505000D01*
X49138666Y-139271666D01*
X48638666Y-139038333D01*
X49338666Y-139038333D01*
X49338666Y-138705000D02*
X48638666Y-138705000D01*
X48638666Y-138538333D01*
X48672000Y-138438333D01*
X48738666Y-138371666D01*
X48805333Y-138338333D01*
X48938666Y-138305000D01*
X49038666Y-138305000D01*
X49172000Y-138338333D01*
X49238666Y-138371666D01*
X49305333Y-138438333D01*
X49338666Y-138538333D01*
X49338666Y-138705000D01*
X49338666Y-137638333D02*
X49338666Y-138038333D01*
X49338666Y-137838333D02*
X48638666Y-137838333D01*
X48738666Y-137905000D01*
X48805333Y-137971666D01*
X48838666Y-138038333D01*
X48705333Y-137371666D02*
X48672000Y-137338333D01*
X48638666Y-137271666D01*
X48638666Y-137105000D01*
X48672000Y-137038333D01*
X48705333Y-137005000D01*
X48772000Y-136971666D01*
X48838666Y-136971666D01*
X48938666Y-137005000D01*
X49338666Y-137405000D01*
X49338666Y-136971666D01*
%TD*%
M02*
