M48
; DRILL file {KiCad (5.1.10)-1} date 09/02/22 22:27:11
; FORMAT={-:-/ absolute / inch / decimal}
; #@! TF.CreationDate,2022-09-02T22:27:11-04:00
; #@! TF.GenerationSoftware,Kicad,Pcbnew,(5.1.10)-1
; #@! TF.FileFunction,Plated,1,2,PTH
FMAT,2
INCH
T1C0.0157
T2C0.0236
T3C0.0315
T4C0.0394
T5C0.0433
T6C0.0472
T7C0.0630
%
G90
G05
T1
X2.6Y-5.1
X2.6Y-6.8
X2.625Y-4.425
X2.65Y-5.275
X2.85Y-5.725
T2
X2.6Y-3.95
X2.6591Y-3.95
T3
X2.725Y-4.25
X2.725Y-4.55
X2.725Y-4.675
X2.725Y-4.975
X2.725Y-5.1
X2.725Y-5.4
X2.725Y-5.525
X2.725Y-5.825
X2.725Y-5.925
X2.725Y-6.225
X2.725Y-6.325
X2.725Y-6.625
X2.875Y-4.25
X2.875Y-4.55
X2.875Y-4.675
X2.875Y-4.975
X2.875Y-5.1
X2.875Y-5.4
X2.875Y-5.525
X2.875Y-5.825
X3.0Y-3.825
X3.0Y-3.925
X3.0Y-4.025
X3.0Y-4.125
X3.0Y-4.275
X3.0Y-4.425
X3.0Y-4.6
X3.0Y-4.7
X3.0Y-4.8
X3.0Y-4.9
X3.0Y-5.05
X3.0Y-5.175
X3.0Y-5.3
X3.0Y-5.45
X3.0Y-5.55
X3.0Y-5.65
X3.0Y-5.75
X3.0Y-5.925
X3.0Y-6.05
X3.0Y-6.175
X3.0Y-6.375
X3.0Y-6.475
X3.0Y-6.575
X3.0Y-6.675
X3.3Y-3.825
X3.3Y-3.925
X3.3Y-4.025
X3.3Y-4.125
X3.3Y-4.275
X3.3Y-4.425
X3.3Y-4.6
X3.3Y-4.7
X3.3Y-4.8
X3.3Y-4.9
X3.3Y-5.05
X3.3Y-5.175
X3.3Y-5.3
X3.3Y-5.45
X3.3Y-5.55
X3.3Y-5.65
X3.3Y-5.75
X3.3Y-5.925
X3.3Y-6.05
X3.3Y-6.175
X3.3Y-6.375
X3.3Y-6.475
X3.3Y-6.575
X3.3Y-6.675
T4
X1.5Y-3.325
X1.5Y-3.425
X1.5Y-3.525
X1.5Y-3.625
X1.5Y-3.725
X1.5Y-3.825
X1.5Y-4.375
X1.5Y-4.475
X1.5Y-4.575
X1.5Y-4.675
X1.5Y-4.775
X1.5Y-4.875
X1.5Y-4.975
X1.5Y-5.075
X1.5Y-5.175
X1.5Y-5.275
X1.5Y-5.375
X1.5Y-5.475
X1.5Y-5.575
X1.5Y-5.675
X1.5Y-5.775
X1.5Y-5.875
X1.5Y-5.975
X1.5Y-6.075
X1.5Y-6.175
X1.5Y-6.275
X1.5Y-6.375
X1.5Y-6.475
X1.5Y-6.575
X1.5Y-6.675
X1.65Y-3.325
X1.65Y-3.425
X1.65Y-3.525
X1.65Y-3.625
X1.65Y-3.725
X1.65Y-3.825
X1.9Y-3.325
X1.9Y-3.425
X1.9Y-3.525
X1.9Y-3.625
X1.9Y-3.725
X1.9Y-3.825
X2.45Y-4.375
X2.45Y-4.475
X2.45Y-4.575
X2.45Y-4.675
X2.45Y-4.775
X2.45Y-4.875
X2.45Y-4.975
X2.45Y-5.075
X2.45Y-5.175
X2.45Y-5.275
X2.45Y-5.375
X2.45Y-5.475
X2.45Y-5.575
X2.45Y-5.675
X2.45Y-5.775
X2.45Y-5.875
X2.45Y-5.975
X2.45Y-6.075
X2.45Y-6.175
X2.45Y-6.275
X2.45Y-6.375
X2.45Y-6.475
X2.45Y-6.575
X2.45Y-6.675
T5
X1.675Y-4.375
X1.675Y-4.475
X1.675Y-4.575
X1.675Y-4.675
X1.675Y-4.775
X1.675Y-4.875
X1.675Y-4.975
X1.675Y-5.075
X1.675Y-5.175
X1.675Y-5.275
X1.675Y-5.375
X1.675Y-5.475
X1.675Y-5.575
X1.675Y-5.675
X1.675Y-5.775
X1.675Y-5.875
X1.675Y-5.975
X1.675Y-6.075
X1.675Y-6.175
X1.675Y-6.275
X1.675Y-6.375
X1.675Y-6.475
X1.675Y-6.575
X1.675Y-6.675
X1.775Y-6.175
X1.7931Y-4.625
X1.7931Y-4.725
X1.7931Y-4.825
X1.7931Y-4.925
X1.7931Y-5.025
X1.875Y-6.175
X1.975Y-6.175
X2.075Y-6.175
X2.175Y-4.475
X2.175Y-4.675
X2.175Y-4.775
X2.175Y-4.875
X2.175Y-6.175
X2.275Y-4.375
X2.275Y-4.475
X2.275Y-4.575
X2.275Y-4.675
X2.275Y-4.775
X2.275Y-4.875
X2.275Y-4.975
X2.275Y-5.075
X2.275Y-5.175
X2.275Y-5.275
X2.275Y-5.375
X2.275Y-5.475
X2.275Y-5.575
X2.275Y-5.675
X2.275Y-5.775
X2.275Y-5.875
X2.275Y-5.975
X2.275Y-6.075
X2.275Y-6.175
X2.275Y-6.275
X2.275Y-6.375
X2.275Y-6.475
X2.275Y-6.575
X2.275Y-6.675
T6
X2.2031Y-3.575
X2.4Y-3.575
T7
X2.775Y-3.475
X2.8931Y-3.29
X3.0112Y-3.475
T0
M30
