%TF.GenerationSoftware,KiCad,Pcbnew,(5.1.10)-1*%
%TF.CreationDate,2022-09-02T22:27:05-04:00*%
%TF.ProjectId,dynamic clamp pcb,64796e61-6d69-4632-9063-6c616d702070,rev?*%
%TF.SameCoordinates,Original*%
%TF.FileFunction,Soldermask,Bot*%
%TF.FilePolarity,Negative*%
%FSLAX46Y46*%
G04 Gerber Fmt 4.6, Leading zero omitted, Abs format (unit mm)*
G04 Created by KiCad (PCBNEW (5.1.10)-1) date 2022-09-02 22:27:05*
%MOMM*%
%LPD*%
G01*
G04 APERTURE LIST*
%ADD10O,1.600000X1.600000*%
%ADD11C,1.600000*%
%ADD12R,2.400000X2.400000*%
%ADD13C,2.400000*%
%ADD14R,1.200000X1.200000*%
%ADD15C,1.200000*%
%ADD16R,1.700000X1.700000*%
%ADD17O,1.700000X1.700000*%
%ADD18R,2.600000X2.600000*%
%ADD19C,2.600000*%
%ADD20R,1.600000X1.600000*%
G04 APERTURE END LIST*
D10*
%TO.C,R11 10k*%
X83820000Y-150495000D03*
D11*
X76200000Y-150495000D03*
%TD*%
D12*
%TO.C,C1 200uF*%
X55960000Y-90805000D03*
D13*
X60960000Y-90805000D03*
%TD*%
D14*
%TO.C,C2 1uF*%
X66040000Y-100330000D03*
D15*
X67540000Y-100330000D03*
%TD*%
D16*
%TO.C,GND*%
X38100000Y-84455000D03*
D17*
X38100000Y-86995000D03*
X38100000Y-89535000D03*
X38100000Y-92075000D03*
X38100000Y-94615000D03*
X38100000Y-97155000D03*
%TD*%
D18*
%TO.C,Power*%
X70485000Y-88265000D03*
D19*
X76485000Y-88265000D03*
X73485000Y-83565000D03*
%TD*%
D17*
%TO.C,Signal*%
X48260000Y-97155000D03*
X48260000Y-94615000D03*
X48260000Y-92075000D03*
X48260000Y-89535000D03*
X48260000Y-86995000D03*
D16*
X48260000Y-84455000D03*
%TD*%
%TO.C,J6*%
X38100000Y-111125000D03*
D17*
X38100000Y-113665000D03*
X38100000Y-116205000D03*
X38100000Y-118745000D03*
X38100000Y-121285000D03*
X38100000Y-123825000D03*
X38100000Y-126365000D03*
X38100000Y-128905000D03*
X38100000Y-131445000D03*
X38100000Y-133985000D03*
X38100000Y-136525000D03*
X38100000Y-139065000D03*
X38100000Y-141605000D03*
X38100000Y-144145000D03*
X38100000Y-146685000D03*
X38100000Y-149225000D03*
X38100000Y-151765000D03*
X38100000Y-154305000D03*
X38100000Y-156845000D03*
X38100000Y-159385000D03*
X38100000Y-161925000D03*
X38100000Y-164465000D03*
X38100000Y-167005000D03*
X38100000Y-169545000D03*
%TD*%
%TO.C,J7*%
X62230000Y-169545000D03*
X62230000Y-167005000D03*
X62230000Y-164465000D03*
X62230000Y-161925000D03*
X62230000Y-159385000D03*
X62230000Y-156845000D03*
X62230000Y-154305000D03*
X62230000Y-151765000D03*
X62230000Y-149225000D03*
X62230000Y-146685000D03*
X62230000Y-144145000D03*
X62230000Y-141605000D03*
X62230000Y-139065000D03*
X62230000Y-136525000D03*
X62230000Y-133985000D03*
X62230000Y-131445000D03*
X62230000Y-128905000D03*
X62230000Y-126365000D03*
X62230000Y-123825000D03*
X62230000Y-121285000D03*
X62230000Y-118745000D03*
X62230000Y-116205000D03*
X62230000Y-113665000D03*
D16*
X62230000Y-111125000D03*
%TD*%
%TO.C,GND*%
X41910000Y-84455000D03*
D17*
X41910000Y-86995000D03*
X41910000Y-89535000D03*
X41910000Y-92075000D03*
X41910000Y-94615000D03*
X41910000Y-97155000D03*
%TD*%
D10*
%TO.C,R1 2.2k*%
X69215000Y-107950000D03*
D11*
X69215000Y-115570000D03*
%TD*%
D10*
%TO.C,R2 470*%
X73025000Y-107950000D03*
D11*
X73025000Y-115570000D03*
%TD*%
%TO.C,R3 4.7k*%
X76200000Y-108585000D03*
D10*
X83820000Y-108585000D03*
%TD*%
D11*
%TO.C,R4 22k*%
X76200000Y-112395000D03*
D10*
X83820000Y-112395000D03*
%TD*%
%TO.C,R5 10k*%
X69215000Y-126365000D03*
D11*
X69215000Y-118745000D03*
%TD*%
%TO.C,R6 100*%
X73025000Y-118745000D03*
D10*
X73025000Y-126365000D03*
%TD*%
%TO.C,R7 2.2k*%
X83820000Y-128270000D03*
D11*
X76200000Y-128270000D03*
%TD*%
%TO.C,R8 10k*%
X76200000Y-131445000D03*
D10*
X83820000Y-131445000D03*
%TD*%
D11*
%TO.C,R9 10k*%
X76200000Y-134620000D03*
D10*
X83820000Y-134620000D03*
%TD*%
%TO.C,R10 10k*%
X69215000Y-137160000D03*
D11*
X69215000Y-129540000D03*
%TD*%
%TO.C,R12 10k*%
X83820000Y-153670000D03*
D10*
X76200000Y-153670000D03*
%TD*%
%TO.C,R13 10k*%
X83820000Y-156845000D03*
D11*
X76200000Y-156845000D03*
%TD*%
%TO.C,R14 4.7k*%
X69215000Y-168275000D03*
D10*
X69215000Y-160655000D03*
%TD*%
D11*
%TO.C,R15 10k*%
X69215000Y-158115000D03*
D10*
X69215000Y-150495000D03*
%TD*%
D11*
%TO.C,R16 10k*%
X69215000Y-147955000D03*
D10*
X69215000Y-140335000D03*
%TD*%
%TO.C,R17 4.7k*%
X73025000Y-147955000D03*
D11*
X73025000Y-140335000D03*
%TD*%
D10*
%TO.C,R18 2.2k*%
X73025000Y-137160000D03*
D11*
X73025000Y-129540000D03*
%TD*%
D10*
%TO.C,LM358*%
X83820000Y-116840000D03*
X76200000Y-124460000D03*
X83820000Y-119380000D03*
X76200000Y-121920000D03*
X83820000Y-121920000D03*
X76200000Y-119380000D03*
X83820000Y-124460000D03*
D20*
X76200000Y-116840000D03*
%TD*%
%TO.C,LM358*%
X76200000Y-138430000D03*
D10*
X83820000Y-146050000D03*
X76200000Y-140970000D03*
X83820000Y-143510000D03*
X76200000Y-143510000D03*
X83820000Y-140970000D03*
X76200000Y-146050000D03*
X83820000Y-138430000D03*
%TD*%
D20*
%TO.C,LM358*%
X76200000Y-161925000D03*
D10*
X83820000Y-169545000D03*
X76200000Y-164465000D03*
X83820000Y-167005000D03*
X76200000Y-167005000D03*
X83820000Y-164465000D03*
X76200000Y-169545000D03*
X83820000Y-161925000D03*
%TD*%
%TO.C,TLE2426*%
X83820000Y-97155000D03*
X76200000Y-104775000D03*
X83820000Y-99695000D03*
X76200000Y-102235000D03*
X83820000Y-102235000D03*
X76200000Y-99695000D03*
X83820000Y-104775000D03*
D20*
X76200000Y-97155000D03*
%TD*%
D11*
%TO.C,U5*%
X42545000Y-151765000D03*
X42545000Y-154305000D03*
X42545000Y-156845000D03*
X42545000Y-159385000D03*
X42545000Y-149225000D03*
X42545000Y-146685000D03*
X42545000Y-144145000D03*
X42545000Y-161925000D03*
X42545000Y-164465000D03*
X42545000Y-167005000D03*
X42545000Y-169545000D03*
X45085000Y-156845000D03*
X47625000Y-156845000D03*
X50165000Y-156845000D03*
X52705000Y-156845000D03*
X55245000Y-156845000D03*
X57785000Y-169545000D03*
X57785000Y-167005000D03*
X57785000Y-164465000D03*
X57785000Y-161925000D03*
X57785000Y-159385000D03*
X57785000Y-156845000D03*
X57785000Y-154305000D03*
X57785000Y-151765000D03*
X42545000Y-141605000D03*
X42545000Y-139065000D03*
X42545000Y-136525000D03*
X42545000Y-133985000D03*
X42545000Y-131445000D03*
X42545000Y-128905000D03*
X42545000Y-126365000D03*
X42545000Y-123825000D03*
X42545000Y-121285000D03*
X42545000Y-118745000D03*
X42545000Y-116205000D03*
X42545000Y-113665000D03*
D20*
X42545000Y-111125000D03*
D11*
X57785000Y-149225000D03*
X57785000Y-146685000D03*
X57785000Y-144145000D03*
X57785000Y-141605000D03*
X57785000Y-139065000D03*
X57785000Y-136525000D03*
X57785000Y-133985000D03*
X57785000Y-131445000D03*
X57785000Y-128905000D03*
X57785000Y-126365000D03*
X57785000Y-123825000D03*
X57785000Y-121285000D03*
X57785000Y-118745000D03*
X57785000Y-116205000D03*
X57785000Y-113665000D03*
X57785000Y-111125000D03*
X55245000Y-113665000D03*
X55245000Y-118745000D03*
X55245000Y-121285000D03*
X55245000Y-123825000D03*
X45545000Y-117475000D03*
X45545000Y-120015000D03*
X45545000Y-122555000D03*
X45545000Y-125095000D03*
X45545000Y-127635000D03*
%TD*%
M02*
